<?xml version="1.0" standalone="no"?><!DOCTYPE svg PUBLIC "-//W3C//DTD SVG 1.1//EN" "http://www.w3.org/Graphics/SVG/1.1/DTD/svg11.dtd"><svg xmlns="http://www.w3.org/2000/svg" version="1.1" width="809.314" height="1588.5" xmlns:xlink="http://www.w3.org/1999/xlink" xlink="http://www.w3.org/1999/xlink" style="position:relative;overflow:hidden;" viewBox="-5.083 11.333 809.314 1588.5"><defs/><g><g width="0" height="980.167" transform="scale(1,1) translate(500,23.833)"><g fill="#545454" stroke="#545454" stroke-opacity="1" transform="scale(1,1) translate(0,0)"><path fill="none" stroke-width="1" stroke-dasharray="none" d="M0,0 L0,0 M0,0 L0,0 M0,980.167 L0,980.167 M0,0 L0,0 M0,76 L0,141 M0,196.833 L0,261.833 M0,363.5 L0,428.5 M0,505.167 L0,570.167 M0,671.833 L0,736.833 M0,846.833 L0,911.833"/><g><g stroke-dasharray="none"><path d="M5,141L0,151L-5,141z" stroke="none" fill-opacity="1"/></g><g stroke-dasharray="none"><path d="M5,261.833L0,271.833L-5,261.833z" stroke="none" fill-opacity="1"/></g><g stroke-dasharray="none"><path d="M5,428.5L0,438.5L-5,428.5z" stroke="none" fill-opacity="1"/></g><g stroke-dasharray="none"><path d="M5,570.167L0,580.167L-5,570.167z" stroke="none" fill-opacity="1"/></g><g stroke-dasharray="none"><path d="M5,736.833L0,746.833L-5,736.833z" stroke="none" fill-opacity="1"/></g><g stroke-dasharray="none"><path d="M5,911.833L0,921.833L-5,911.833z" stroke="none" fill-opacity="1"/></g></g></g><g stroke-width="0" stroke-dasharray="none" fill="#FFFFFF" opacity="1" width="29.189" height="20.75" transform="scale(1,1) translate(-14.595,390.625)"><rect width="29.189" height="20.75"/></g><g width="27.189125061035156" height="75" transform="scale(1,1) translate(-13.595,391.625)"><text width="27.189125061035156" height="18.75" transform="scale(1,1) translate(0,0)" xml:space="preserve"><tspan xml:space="preserve" text-rendering="optimizeSpeed" font-size="16.666666666666668" font-weight="normal" font-style="normal" text-decoration="none" fill="#333333" opacity="1" x="0" text-anchor="start" y="15.104" textLength="27.189125061035156" style="font-family: Arial, Helvetica Neue, Helvetica, sans-serif;">Yes</tspan></text></g></g><g width="150" height="75" transform="scale(1,1) translate(425,23.833)"><g transform="scale(1,1) translate(0,0)" stroke="#B3D7EE" fill="#B3D7EE" fill-opacity="1" stroke-opacity="1"><path d="M37,0 L28.675,0.949 L25.303,1.897 L22.769,2.846 L20.678,3.795 L18.875,4.744 L17.281,5.692 L15.85,6.641 L14.549,7.59 L13.358,8.538 L12.26,9.487 L11.244,10.436 L10.301,11.385 L9.422,12.333 L8.602,13.282 L7.836,14.231 L7.119,15.179 L6.449,16.128 L5.822,17.077 L5.236,18.026 L4.688,18.974 L4.177,19.923 L3.7,20.872 L3.257,21.821 L2.846,22.769 L2.466,23.718 L2.116,24.667 L1.795,25.615 L1.502,26.564 L1.237,27.513 L0.999,28.462 L0.787,29.41 L0.601,30.359 L0.44,31.308 L0.305,32.256 L0.195,33.205 L0.11,34.154 L0.049,35.103 L0.012,36.051 L0,37 L0,38 L0.012,38.949 L0.049,39.897 L0.11,40.846 L0.195,41.795 L0.305,42.744 L0.44,43.692 L0.601,44.641 L0.787,45.59 L0.999,46.538 L1.237,47.487 L1.502,48.436 L1.795,49.385 L2.116,50.333 L2.466,51.282 L2.846,52.231 L3.257,53.179 L3.7,54.128 L4.177,55.077 L4.688,56.026 L5.236,56.974 L5.822,57.923 L6.449,58.872 L7.119,59.821 L7.836,60.769 L8.602,61.718 L9.422,62.667 L10.301,63.615 L11.244,64.564 L12.26,65.513 L13.358,66.462 L14.549,67.41 L15.85,68.359 L17.281,69.308 L18.875,70.256 L20.678,71.205 L22.769,72.154 L25.303,73.103 L28.675,74.051 L37,75 L113,75 L121.325,74.051 L124.697,73.103 L127.231,72.154 L129.322,71.205 L131.125,70.256 L132.719,69.308 L134.15,68.359 L135.451,67.41 L136.642,66.462 L137.74,65.513 L138.756,64.564 L139.699,63.615 L140.578,62.667 L141.398,61.718 L142.164,60.769 L142.881,59.821 L143.551,58.872 L144.178,57.923 L144.764,56.974 L145.312,56.026 L145.823,55.077 L146.3,54.128 L146.743,53.179 L147.154,52.231 L147.534,51.282 L147.884,50.333 L148.205,49.385 L148.498,48.436 L148.763,47.487 L149.001,46.538 L149.213,45.59 L149.399,44.641 L149.56,43.692 L149.695,42.744 L149.805,41.795 L149.89,40.846 L149.951,39.897 L149.988,38.949 L150,38 L150,37 L149.988,36.051 L149.951,35.103 L149.89,34.154 L149.805,33.205 L149.695,32.256 L149.56,31.308 L149.399,30.359 L149.213,29.41 L149.001,28.462 L148.763,27.513 L148.498,26.564 L148.205,25.615 L147.884,24.667 L147.534,23.718 L147.154,22.769 L146.743,21.821 L146.3,20.872 L145.823,19.923 L145.312,18.974 L144.764,18.026 L144.178,17.077 L143.551,16.128 L142.881,15.179 L142.164,14.231 L141.398,13.282 L140.578,12.333 L139.699,11.385 L138.756,10.436 L137.74,9.487 L136.642,8.538 L135.451,7.59 L134.15,6.641 L132.719,5.692 L131.125,4.744 L129.322,3.795 L127.231,2.846 L124.697,1.897 L121.325,0.949 L113,0 L37,0 z" stroke-width="1" stroke-dasharray="none"/></g><g width="101.358910518" height="48.325901868" transform="scale(1,1) translate(24.321,13.337)"><text width="101.358910518" height="18.75" transform="scale(1,1) translate(0,14.787950934000001)" xml:space="preserve"><tspan xml:space="preserve" text-rendering="optimizeSpeed" font-size="16.666666666666668" font-weight="normal" font-style="normal" text-decoration="none" fill="#333333" opacity="1" x="33.081" text-anchor="start" y="15.104" textLength="35.19694137573242" style="font-family: Arial, Helvetica Neue, Helvetica, sans-serif;">Start</tspan></text></g></g><g width="300" height="44.833" transform="scale(1,1) translate(350,174.833)"><g stroke="#B3D7EE" stroke-opacity="1" stroke-width="1" stroke-dasharray="none" width="300" height="44.833" transform="scale(1,1) translate(0,0)" fill="#B3D7EE" fill-opacity="1"><rect width="300" height="44.833"/></g><g width="295.00000234444923" height="39.833332657814054" transform="scale(1,1) translate(2.5,2.5)"><text width="295.00000234444923" height="18.75" transform="scale(1,1) translate(0,10.541666328907027)" xml:space="preserve"><tspan xml:space="preserve" text-rendering="optimizeSpeed" font-size="16.666666666666668" font-weight="normal" font-style="normal" text-decoration="none" fill="#333333" opacity="1" x="3.221" text-anchor="start" y="15.104" textLength="288.5579528808594" style="font-family: Arial, Helvetica Neue, Helvetica, sans-serif;">List&lt;String&gt; result = new ArrayList&lt;&gt;();</tspan></text></g></g><g width="211.813" height="90.667" transform="scale(1,1) translate(394.094,295.667)"><g transform="scale(1,1) translate(0,0)" stroke="#B3D7EE" fill="#B3D7EE" fill-opacity="1" stroke-opacity="1"><path d="M105.906,0 L211.813,45.333 L105.906,90.667 L0,45.333 L105.906,0 z" stroke-width="1" stroke-dasharray="none"/></g><g width="105.40625" height="44.83333352704844" transform="scale(1,1) translate(53.203,22.917)"><text width="105.40625" height="37.5" transform="scale(1,1) translate(0,3.666666763524219)" xml:space="preserve"><tspan xml:space="preserve" text-rendering="optimizeSpeed" font-size="16.666666666666668" font-weight="normal" font-style="normal" text-decoration="none" fill="#333333" opacity="1" x="2.199" text-anchor="start" y="15.104" textLength="101.00910949707031" style="font-family: Arial, Helvetica Neue, Helvetica, sans-serif;">node.getType</tspan><tspan xml:space="preserve" text-rendering="optimizeSpeed" font-size="16.666666666666668" font-weight="normal" font-style="normal" text-decoration="none" fill="#333333" opacity="1" x="0.14" text-anchor="start" y="33.854" textLength="105.12698364257812" style="font-family: Arial, Helvetica Neue, Helvetica, sans-serif;">Name() != null</tspan></text></g></g><g width="324.831" height="65.667" transform="scale(1,1) translate(337.585,462.333)"><g stroke="#B3D7EE" stroke-opacity="1" stroke-width="1" stroke-dasharray="none" width="324.831" height="65.667" transform="scale(1,1) translate(0,0)" fill="#B3D7EE" fill-opacity="1"><rect width="324.831" height="65.667"/></g><g width="319.830731395632" height="60.66666664183134" transform="scale(1,1) translate(2.5,2.5)"><text width="319.830731395632" height="37.5" transform="scale(1,1) translate(0,11.58333332091567)" xml:space="preserve"><tspan xml:space="preserve" text-rendering="optimizeSpeed" font-size="16.666666666666668" font-weight="normal" font-style="normal" text-decoration="none" fill="#333333" opacity="1" x="61.482" text-anchor="start" y="15.104" textLength="192.23631286621094" style="font-family: Arial, Helvetica Neue, Helvetica, sans-serif;">List&lt;TypeRef&gt; typeArgs =</tspan><tspan xml:space="preserve" text-rendering="optimizeSpeed" font-size="16.666666666666668" font-weight="normal" font-style="normal" text-decoration="none" fill="#333333" opacity="1" x="1.505" text-anchor="start" y="33.854" textLength="316.8212585449219" style="font-family: Arial, Helvetica Neue, Helvetica, sans-serif;">node.getTypeName().getTypeArguments();</tspan></text></g></g><g width="150" height="54.167" transform="scale(1,1) translate(125,619.25)"><g transform="scale(1,1) translate(0,0)" stroke="#B3D7EE" fill="#B3D7EE" fill-opacity="1" stroke-opacity="1"><path d="M27,0 L20.925,0.692 L18.465,1.385 L16.615,2.077 L15.089,2.769 L13.773,3.462 L12.611,4.154 L11.566,4.846 L10.617,5.538 L9.748,6.231 L8.947,6.923 L8.205,7.615 L7.517,8.308 L6.875,9 L6.277,9.692 L5.718,10.385 L5.195,11.077 L4.706,11.769 L4.248,12.462 L3.821,13.154 L3.421,13.846 L3.048,14.538 L2.7,15.231 L2.377,15.923 L2.077,16.615 L1.8,17.308 L1.544,18 L1.31,18.692 L1.096,19.385 L0.903,20.077 L0.729,20.769 L0.574,21.462 L0.438,22.154 L0.321,22.846 L0.223,23.538 L0.142,24.231 L0.08,24.923 L0.036,25.615 L0.009,26.308 L0,27 L0,27.167 L0.009,27.859 L0.036,28.551 L0.08,29.244 L0.142,29.936 L0.223,30.628 L0.321,31.321 L0.438,32.013 L0.574,32.705 L0.729,33.397 L0.903,34.09 L1.096,34.782 L1.31,35.474 L1.544,36.167 L1.8,36.859 L2.077,37.551 L2.377,38.244 L2.7,38.936 L3.048,39.628 L3.421,40.321 L3.821,41.013 L4.248,41.705 L4.706,42.397 L5.195,43.09 L5.718,43.782 L6.277,44.474 L6.875,45.167 L7.517,45.859 L8.205,46.551 L8.947,47.244 L9.748,47.936 L10.617,48.628 L11.566,49.321 L12.611,50.013 L13.773,50.705 L15.089,51.397 L16.615,52.09 L18.465,52.782 L20.925,53.474 L27,54.167 L123,54.167 L129.075,53.474 L131.535,52.782 L133.385,52.09 L134.911,51.397 L136.227,50.705 L137.389,50.013 L138.434,49.321 L139.383,48.628 L140.252,47.936 L141.053,47.244 L141.795,46.551 L142.483,45.859 L143.125,45.167 L143.723,44.474 L144.282,43.782 L144.805,43.09 L145.294,42.397 L145.752,41.705 L146.179,41.013 L146.579,40.321 L146.952,39.628 L147.3,38.936 L147.623,38.244 L147.923,37.551 L148.2,36.859 L148.456,36.167 L148.69,35.474 L148.904,34.782 L149.097,34.09 L149.271,33.397 L149.426,32.705 L149.562,32.013 L149.679,31.321 L149.777,30.628 L149.858,29.936 L149.92,29.244 L149.964,28.551 L149.991,27.859 L150,27.167 L150,27 L149.991,26.308 L149.964,25.615 L149.92,24.923 L149.858,24.231 L149.777,23.538 L149.679,22.846 L149.562,22.154 L149.426,21.462 L149.271,20.769 L149.097,20.077 L148.904,19.385 L148.69,18.692 L148.456,18 L148.2,17.308 L147.923,16.615 L147.623,15.923 L147.3,15.231 L146.952,14.538 L146.579,13.846 L146.179,13.154 L145.752,12.462 L145.294,11.769 L144.805,11.077 L144.282,10.385 L143.723,9.692 L143.125,9 L142.483,8.308 L141.795,7.615 L141.053,6.923 L140.252,6.231 L139.383,5.538 L138.434,4.846 L137.389,4.154 L136.227,3.462 L134.911,2.769 L133.385,2.077 L131.535,1.385 L129.075,0.692 L123,0 L27,0 z" stroke-width="1" stroke-dasharray="none"/></g><g width="101.358910518" height="33.59451029535426" transform="scale(1,1) translate(24.321,10.286)"><text width="101.358910518" height="18.75" transform="scale(1,1) translate(0,7.422255147677131)" xml:space="preserve"><tspan xml:space="preserve" text-rendering="optimizeSpeed" font-size="16.666666666666668" font-weight="normal" font-style="normal" text-decoration="none" fill="#333333" opacity="1" x="3.902" text-anchor="start" y="15.104" textLength="93.55467224121094" style="font-family: Arial, Helvetica Neue, Helvetica, sans-serif;">return result;</tspan></text></g></g><g width="225" height="90.667" transform="scale(1,1) translate(387.5,604)"><g transform="scale(1,1) translate(0,0)" stroke="#B3D7EE" fill="#B3D7EE" fill-opacity="1" stroke-opacity="1"><path d="M112.5,0 L225,45.333 L112.5,90.667 L0,45.333 L112.5,0 z" stroke-width="1" stroke-dasharray="none"/></g><g width="112.00000023841861" height="44.833333414047786" transform="scale(1,1) translate(56.5,22.917)"><text width="112.00000023841861" height="37.5" transform="scale(1,1) translate(0,3.666666707023893)" xml:space="preserve"><tspan xml:space="preserve" text-rendering="optimizeSpeed" font-size="16.666666666666668" font-weight="normal" font-style="normal" text-decoration="none" fill="#333333" opacity="1" x="3.66" text-anchor="start" y="15.104" textLength="100.04882049560547" style="font-family: Arial, Helvetica Neue, Helvetica, sans-serif;">TypeRef arg :</tspan><tspan xml:space="preserve" text-rendering="optimizeSpeed" font-size="16.666666666666668" font-weight="normal" font-style="normal" text-decoration="none" fill="#333333" opacity="1" x="23.114" text-anchor="start" y="33.854" textLength="65.77146911621094" style="font-family: Arial, Helvetica Neue, Helvetica, sans-serif;">typeArgs</tspan></text></g></g><g width="112.501" height="3" transform="scale(1,1) translate(274.999,646.333)"><g transform="scale(1,1) translate(0,0)" fill="#545454" stroke="#545454" stroke-opacity="1"><path d="M 112.501 3 L 9.996 0.267" fill="none" stroke-width="1" stroke-dasharray="none"/><g><g stroke-dasharray="none"><path d="M9.863,5.265L0,0L10.13,-4.732z" stroke="none" fill-opacity="1"/></g></g></g></g><g width="194.094" height="278.25" transform="scale(1,1) translate(200,341)"><g transform="scale(1,1) translate(0,0)" fill="#545454" stroke="#545454" stroke-opacity="1"><path d="M 194.094 0 L 0 0 L 0 268.25" fill="none" stroke-width="1" stroke-dasharray="none"/><g><g stroke-dasharray="none"><path d="M5,268.25L0,278.25L-5,268.25z" stroke="none" fill-opacity="1"/></g></g></g><g stroke-width="0" stroke-dasharray="none" fill="#FFFFFF" opacity="1" width="23.305" height="20.75" transform="scale(1,1) translate(-11.653,128.75)"><rect width="23.305" height="20.75"/></g><g width="21.305335998535156" height="278.2500003923974" transform="scale(1,1) translate(-10.653,129.75)"><text width="21.305335998535156" height="18.75" transform="scale(1,1) translate(0,0)" xml:space="preserve"><tspan xml:space="preserve" text-rendering="optimizeSpeed" font-size="16.666666666666668" font-weight="normal" font-style="normal" text-decoration="none" fill="#333333" opacity="1" x="0" text-anchor="start" y="15.104" textLength="21.305335998535156" style="font-family: Arial, Helvetica Neue, Helvetica, sans-serif;">No</tspan></text></g></g><g width="213.911" height="99" transform="scale(1,1) translate(393.044,770.667)"><g transform="scale(1,1) translate(0,0)" stroke="#B3D7EE" fill="#B3D7EE" fill-opacity="1" stroke-opacity="1"><path d="M106.956,0 L213.911,49.5 L106.956,99 L0,49.5 L106.956,0 z" stroke-width="1" stroke-dasharray="none"/></g><g width="106.45572918653491" height="48.999999994412235" transform="scale(1,1) translate(53.728,25)"><text width="106.45572918653491" height="37.5" transform="scale(1,1) translate(0,5.7499999972061175)" xml:space="preserve"><tspan xml:space="preserve" text-rendering="optimizeSpeed" font-size="16.666666666666668" font-weight="normal" font-style="normal" text-decoration="none" fill="#333333" opacity="1" x="0" text-anchor="start" y="15.104" textLength="104.69562530517578" style="font-family: Arial, Helvetica Neue, Helvetica, sans-serif;">arg instanceof</tspan><tspan xml:space="preserve" text-rendering="optimizeSpeed" font-size="16.666666666666668" font-weight="normal" font-style="normal" text-decoration="none" fill="#333333" opacity="1" x="1.356" text-anchor="start" y="33.854" textLength="103.74348449707031" style="font-family: Arial, Helvetica Neue, Helvetica, sans-serif;">ClassTypeRef</tspan></text></g></g><g width="358.333" height="57.333" transform="scale(1,1) translate(320.833,945.667)"><g stroke="#B3D7EE" stroke-opacity="1" stroke-width="1" stroke-dasharray="none" width="358.333" height="57.333" transform="scale(1,1) translate(0,0)" fill="#B3D7EE" fill-opacity="1"><rect width="358.333" height="57.333"/></g><g width="353.333336909612" height="52.333333170041215" transform="scale(1,1) translate(2.5,2.5)"><text width="353.333336909612" height="18.75" transform="scale(1,1) translate(0,16.791666585020607)" xml:space="preserve"><tspan xml:space="preserve" text-rendering="optimizeSpeed" font-size="16.666666666666668" font-weight="normal" font-style="normal" text-decoration="none" fill="#333333" opacity="1" x="2.529" text-anchor="start" y="15.104" textLength="348.27471923828125" style="font-family: Arial, Helvetica Neue, Helvetica, sans-serif;">result.add(identifiersToString(arg.getNames()));</tspan></text></g></g><g width="0" height="528.789" transform="scale(1,1) translate(236.333,1058.544)"><g fill="#545454" stroke="#545454" stroke-opacity="1" transform="scale(1,1) translate(0,0)"><path fill="none" stroke-width="1" stroke-dasharray="none" d="M0,0 L0,0 M0,0 L0,0 M0,528.789 L0,528.789 M0,0 L0,0 M0,95.456 L0,160.456 M0,212.122 L0,277.122 M0,403.789 L0,468.789"/><g><g stroke-dasharray="none"><path d="M5,160.456L0,170.456L-5,160.456z" stroke="none" fill-opacity="1"/></g><g stroke-dasharray="none"><path d="M5,277.122L0,287.122L-5,277.122z" stroke="none" fill-opacity="1"/></g><g stroke-dasharray="none"><path d="M5,468.789L0,478.789L-5,468.789z" stroke="none" fill-opacity="1"/></g></g></g><g stroke-width="0" stroke-dasharray="none" fill="#FFFFFF" opacity="1" width="29.189" height="20.75" transform="scale(1,1) translate(-14.595,122.581)"><rect width="29.189" height="20.75"/></g><g width="27.189125061035156" height="75" transform="scale(1,1) translate(-13.595,123.581)"><text width="27.189125061035156" height="18.75" transform="scale(1,1) translate(0,0)" xml:space="preserve"><tspan xml:space="preserve" text-rendering="optimizeSpeed" font-size="16.666666666666668" font-weight="normal" font-style="normal" text-decoration="none" fill="#333333" opacity="1" x="0" text-anchor="start" y="15.104" textLength="27.189125061035156" style="font-family: Arial, Helvetica Neue, Helvetica, sans-serif;">Yes</tspan></text></g><g stroke-width="0" stroke-dasharray="none" fill="#FFFFFF" opacity="1" width="29.189" height="20.75" transform="scale(1,1) translate(-14.595,430.914)"><rect width="29.189" height="20.75"/></g><g width="27.189125061035156" height="75" transform="scale(1,1) translate(-13.595,431.914)"><text width="27.189125061035156" height="18.75" transform="scale(1,1) translate(0,0)" xml:space="preserve"><tspan xml:space="preserve" text-rendering="optimizeSpeed" font-size="16.666666666666668" font-weight="normal" font-style="normal" text-decoration="none" fill="#333333" opacity="1" x="0" text-anchor="start" y="15.104" textLength="27.189125061035156" style="font-family: Arial, Helvetica Neue, Helvetica, sans-serif;">Yes</tspan></text></g></g><g width="211.156" height="94.456" transform="scale(1,1) translate(130.755,1058.544)"><g transform="scale(1,1) translate(0,0)" stroke="#B3D7EE" fill="#B3D7EE" fill-opacity="1" stroke-opacity="1"><path d="M105.578,0 L211.156,47.228 L105.578,94.456 L0,47.228 L105.578,0 z" stroke-width="1" stroke-dasharray="none"/></g><g width="105.078125" height="46.7278645038607" transform="scale(1,1) translate(53.039,23.864)"><text width="105.078125" height="37.5" transform="scale(1,1) translate(0,4.6139322519303505)" xml:space="preserve"><tspan xml:space="preserve" text-rendering="optimizeSpeed" font-size="16.666666666666668" font-weight="normal" font-style="normal" text-decoration="none" fill="#333333" opacity="1" x="0" text-anchor="start" y="15.104" textLength="104.69562530517578" style="font-family: Arial, Helvetica Neue, Helvetica, sans-serif;">arg instanceof</tspan><tspan xml:space="preserve" text-rendering="optimizeSpeed" font-size="16.666666666666668" font-weight="normal" font-style="normal" text-decoration="none" fill="#333333" opacity="1" x="1.595" text-anchor="start" y="33.854" textLength="101.8880386352539" style="font-family: Arial, Helvetica Neue, Helvetica, sans-serif;">ArrayTypeRef</tspan></text></g></g><g width="300" height="40.667" transform="scale(1,1) translate(86.333,1229)"><g stroke="#B3D7EE" stroke-opacity="1" stroke-width="1" stroke-dasharray="none" width="300" height="40.667" transform="scale(1,1) translate(0,0)" fill="#B3D7EE" fill-opacity="1"><rect width="300" height="40.667"/></g><g width="295.00000286102295" height="35.666666030884244" transform="scale(1,1) translate(2.5,2.5)"><text width="295.00000286102295" height="18.75" transform="scale(1,1) translate(0,8.458333015442122)" xml:space="preserve"><tspan xml:space="preserve" text-rendering="optimizeSpeed" font-size="16.666666666666668" font-weight="normal" font-style="normal" text-decoration="none" fill="#333333" opacity="1" x="1.85" text-anchor="start" y="15.104" textLength="291.3004150390625" style="font-family: Arial, Helvetica Neue, Helvetica, sans-serif;">ArrayTypeRef atr = (ArrayTypeRef) arg;</tspan></text></g></g><g width="272.161" height="115.667" transform="scale(1,1) translate(100.253,1345.667)"><g transform="scale(1,1) translate(0,0)" stroke="#B3D7EE" fill="#B3D7EE" fill-opacity="1" stroke-opacity="1"><path d="M136.081,0 L272.161,57.833 L136.081,115.667 L0,57.833 L136.081,0 z" stroke-width="1" stroke-dasharray="none"/></g><g width="135.58072954416264" height="57.333333641290324" transform="scale(1,1) translate(68.29,29.167)"><text width="135.58072954416264" height="56.25" transform="scale(1,1) translate(0,0.5416668206451618)" xml:space="preserve"><tspan xml:space="preserve" text-rendering="optimizeSpeed" font-size="16.666666666666668" font-weight="normal" font-style="normal" text-decoration="none" fill="#333333" opacity="1" x="1.555" text-anchor="start" y="15.104" textLength="127.84016418457031" style="font-family: Arial, Helvetica Neue, Helvetica, sans-serif;">atr.getHeldType()</tspan><tspan xml:space="preserve" text-rendering="optimizeSpeed" font-size="16.666666666666668" font-weight="normal" font-style="normal" text-decoration="none" fill="#333333" opacity="1" x="27.487" text-anchor="start" y="33.854" textLength="75.97659301757812" style="font-family: Arial, Helvetica Neue, Helvetica, sans-serif;">instanceof</tspan><tspan xml:space="preserve" text-rendering="optimizeSpeed" font-size="16.666666666666668" font-weight="normal" font-style="normal" text-decoration="none" fill="#333333" opacity="1" x="15.919" text-anchor="start" y="52.604" textLength="103.74345397949219" style="font-family: Arial, Helvetica Neue, Helvetica, sans-serif;">ClassTypeRef</tspan></text></g></g><g width="457.833" height="49" transform="scale(1,1) translate(7.417,1537.333)"><g stroke="#B3D7EE" stroke-opacity="1" stroke-width="1" stroke-dasharray="none" width="457.833" height="49" transform="scale(1,1) translate(0,0)" fill="#B3D7EE" fill-opacity="1"><rect width="457.833" height="49"/></g><g width="452.83333306511247" height="43.999999458591674" transform="scale(1,1) translate(2.5,2.5)"><text width="452.83333306511247" height="18.75" transform="scale(1,1) translate(0,12.624999729295837)" xml:space="preserve"><tspan xml:space="preserve" text-rendering="optimizeSpeed" font-size="16.666666666666668" font-weight="normal" font-style="normal" text-decoration="none" fill="#333333" opacity="1" x="0.404" text-anchor="start" y="15.104" textLength="452.02630615234375" style="font-family: Arial, Helvetica Neue, Helvetica, sans-serif;">result.add(identifiersToString(atr.getHeldType().getNames()));</tspan></text></g></g><g width="156.711" height="238.378" transform="scale(1,1) translate(236.333,820.167)"><g transform="scale(1,1) translate(0,0)" fill="#545454" stroke="#545454" stroke-opacity="1"><path d="M 156.711 0 L 0 0 L 0 228.378" fill="none" stroke-width="1" stroke-dasharray="none"/><g><g stroke-dasharray="none"><path d="M5,228.378L0,238.378L-5,228.378z" stroke="none" fill-opacity="1"/></g></g></g><g stroke-width="0" stroke-dasharray="none" fill="#FFFFFF" opacity="1" width="23.305" height="20.75" transform="scale(1,1) translate(-11.653,108.814)"><rect width="23.305" height="20.75"/></g><g width="21.305335998535156" height="238.37760432002415" transform="scale(1,1) translate(-10.653,109.814)"><text width="21.305335998535156" height="18.75" transform="scale(1,1) translate(0,0)" xml:space="preserve"><tspan xml:space="preserve" text-rendering="optimizeSpeed" font-size="16.666666666666668" font-weight="normal" font-style="normal" text-decoration="none" fill="#333333" opacity="1" x="0" text-anchor="start" y="15.104" textLength="21.305335998535156" style="font-family: Arial, Helvetica Neue, Helvetica, sans-serif;">No</tspan></text></g></g><g width="147.25" height="912.5" transform="scale(1,1) translate(465.25,649.333)"><g transform="scale(1,1) translate(0,0)" fill="#545454" stroke="#545454" stroke-opacity="1"><path d="M 0 912.5 L 326.417 912.5 L 326.417 0 L 157.25 0" fill="none" stroke-width="1" stroke-dasharray="none"/><g><g stroke-dasharray="none"><path d="M157.25,5L147.25,0L157.25,-5z" stroke="none" fill-opacity="1"/></g></g></g></g><g width="419.253" height="0.5" transform="scale(1,1) translate(372.414,1403)"><g transform="scale(1,1) translate(0,0)" fill="#545454" stroke="#545454" stroke-opacity="1"><path d="M 0 0.5 L 409.253 0.012" fill="none" stroke-width="1" stroke-dasharray="none"/><g><g stroke-dasharray="none"><path d="M409.247,-4.988L419.253,0L409.259,5.012z" stroke="none" fill-opacity="1"/></g></g></g><g stroke-width="0" stroke-dasharray="none" fill="#FFFFFF" opacity="1" width="23.305" height="20.75" transform="scale(1,1) translate(197.974,-10.125)"><rect width="23.305" height="20.75"/></g><g width="21.305335998535156" height="18.75" transform="scale(1,1) translate(198.974,-9.125)"><text width="21.305335998535156" height="18.75" transform="scale(1,1) translate(0,0)" xml:space="preserve" style="user-select: none; -webkit-user-drag: none; -webkit-tap-highlight-color: rgba(0, 0, 0, 0);"><tspan xml:space="preserve" text-rendering="optimizeSpeed" font-size="16.666666666666668" font-weight="normal" font-style="normal" text-decoration="none" fill="#333333" opacity="1" x="0" text-anchor="start" y="15.104" textLength="21.305335998535156" style="font-family: Arial, Helvetica Neue, Helvetica, sans-serif;">No</tspan></text><line visibility="visible" fill="none" stroke-width="1.6025641025641026" stroke="#000" x1="21.305335998535156" y1="0" x2="21.305335998535156" y2="18.75"/></g></g><g width="449.755" height="5.772" transform="scale(1,1) translate(341.911,1100)"><g transform="scale(1,1) translate(0,0)" fill="#545454" stroke="#545454" stroke-opacity="1"><path d="M 0 5.772 L 439.756 0.128" fill="none" stroke-width="1" stroke-dasharray="none"/><g><g stroke-dasharray="none"><path d="M439.692,-4.871L449.755,0L439.82,5.128z" stroke="none" fill-opacity="1"/></g></g></g><g stroke-width="0" stroke-dasharray="none" fill="#FFFFFF" opacity="1" width="23.305" height="20.75" transform="scale(1,1) translate(213.225,-7.489)"><rect width="23.305" height="20.75"/></g><g width="21.305335998535156" height="18.75" transform="scale(1,1) translate(214.225,-6.489)"><text width="21.305335998535156" height="18.75" transform="scale(1,1) translate(0,0)" xml:space="preserve"><tspan xml:space="preserve" text-rendering="optimizeSpeed" font-size="16.666666666666668" font-weight="normal" font-style="normal" text-decoration="none" fill="#333333" opacity="1" x="0" text-anchor="start" y="15.104" textLength="21.305335998535156" style="font-family: Arial, Helvetica Neue, Helvetica, sans-serif;">No</tspan></text></g></g><g width="112.5" height="0.667" transform="scale(1,1) translate(679.167,974.333)"><g transform="scale(1,1) translate(0,0)" fill="#545454" stroke="#545454" stroke-opacity="1"><path d="M 0 0 L 102.5 0.608" fill="none" stroke-width="1" stroke-dasharray="none"/><g><g stroke-dasharray="none"><path d="M102.53,-4.392L112.5,0.667L102.471,5.608z" stroke="none" fill-opacity="1"/></g></g></g></g></g></svg>