<?xml version="1.0" standalone="no"?><!DOCTYPE svg PUBLIC "-//W3C//DTD SVG 1.1//EN" "http://www.w3.org/Graphics/SVG/1.1/DTD/svg11.dtd"><svg xmlns="http://www.w3.org/2000/svg" version="1.1" width="938.875" height="2460.333" xmlns:xlink="http://www.w3.org/1999/xlink" xlink="http://www.w3.org/1999/xlink" style="position:relative;overflow:hidden;" viewBox="15.833 0 938.875 2460.333"><defs/><g><g width="0" height="1009.93" transform="scale(1,1) translate(504.167,12.5)"><g fill="#545454" stroke="#545454" stroke-opacity="1" transform="scale(1,1) translate(0,0)"><path fill="none" stroke-width="1" stroke-dasharray="none" d="M0,0 L0,0 M0,0 L0,0 M0,1009.93 L0,1009.93 M0,0 L0,0 M0,55.167 L0,120.167 M0,206.167 L0,271.167 M0,446 L0,511 M0,645.47 L0,710.47 M0,835.137 L0,900.137"/><g><g stroke-dasharray="none"><path d="M5,120.167L0,130.167L-5,120.167z" stroke="none" fill-opacity="1"/></g><g stroke-dasharray="none"><path d="M5,271.167L0,281.167L-5,271.167z" stroke="none" fill-opacity="1"/></g><g stroke-dasharray="none"><path d="M5,511L0,521L-5,511z" stroke="none" fill-opacity="1"/></g><g stroke-dasharray="none"><path d="M5,710.47L0,720.47L-5,710.47z" stroke="none" fill-opacity="1"/></g><g stroke-dasharray="none"><path d="M5,900.137L0,910.137L-5,900.137z" stroke="none" fill-opacity="1"/></g></g></g><g stroke-width="0" stroke-dasharray="none" fill="#FFFFFF" opacity="1" width="30.035" height="33.25" transform="scale(1,1) translate(-15.018,466.875)"><rect width="30.035" height="33.25"/></g><g width="28.03522491455078" height="75.00000000000006" transform="scale(1,1) translate(-14.018,467.875)"><text width="28.03522491455078" height="31.249998092651367" transform="scale(1,1) translate(0,0)" xml:space="preserve"><tspan xml:space="preserve" text-rendering="optimizeSpeed" font-size="13.88888888888889" font-weight="normal" font-style="normal" text-decoration="none" fill="#333333" opacity="1" x="0" text-anchor="start" y="12.5" textLength="28.03522491455078" style="font-family: Arial, Helvetica Neue, Helvetica, sans-serif;">True</tspan></text></g><g stroke-width="0" stroke-dasharray="none" fill="#FFFFFF" opacity="1" width="24.652" height="17.625" transform="scale(1,1) translate(-12.326,863.825)"><rect width="24.652" height="17.625"/></g><g width="22.651918411254883" height="75" transform="scale(1,1) translate(-11.326,864.825)"><text width="22.651918411254883" height="15.624999046325684" transform="scale(1,1) translate(0,0)" xml:space="preserve"><tspan xml:space="preserve" text-rendering="optimizeSpeed" font-size="13.88888888888889" font-weight="normal" font-style="normal" text-decoration="none" fill="#333333" opacity="1" x="0" text-anchor="start" y="12.5" textLength="22.651918411254883" style="font-family: Arial, Helvetica Neue, Helvetica, sans-serif;">Yes</tspan></text></g></g><g width="125" height="54.167" transform="scale(1,1) translate(441.667,12.5)"><g transform="scale(1,1) translate(0,0)" stroke="#B3D7EE" fill="#B3D7EE" fill-opacity="1" stroke-opacity="1"><path d="M27,0 L20.925,0.692 L18.465,1.385 L16.615,2.077 L15.089,2.769 L13.773,3.462 L12.611,4.154 L11.566,4.846 L10.617,5.538 L9.748,6.231 L8.947,6.923 L8.205,7.615 L7.517,8.308 L6.875,9 L6.277,9.692 L5.718,10.385 L5.195,11.077 L4.706,11.769 L4.248,12.462 L3.821,13.154 L3.421,13.846 L3.048,14.538 L2.7,15.231 L2.377,15.923 L2.077,16.615 L1.8,17.308 L1.544,18 L1.31,18.692 L1.096,19.385 L0.903,20.077 L0.729,20.769 L0.574,21.462 L0.438,22.154 L0.321,22.846 L0.223,23.538 L0.142,24.231 L0.08,24.923 L0.036,25.615 L0.009,26.308 L0,27 L0,27.167 L0.009,27.859 L0.036,28.551 L0.08,29.244 L0.142,29.936 L0.223,30.628 L0.321,31.321 L0.438,32.013 L0.574,32.705 L0.729,33.397 L0.903,34.09 L1.096,34.782 L1.31,35.474 L1.544,36.167 L1.8,36.859 L2.077,37.551 L2.377,38.244 L2.7,38.936 L3.048,39.628 L3.421,40.321 L3.821,41.013 L4.248,41.705 L4.706,42.397 L5.195,43.09 L5.718,43.782 L6.277,44.474 L6.875,45.167 L7.517,45.859 L8.205,46.551 L8.947,47.244 L9.748,47.936 L10.617,48.628 L11.566,49.321 L12.611,50.013 L13.773,50.705 L15.089,51.397 L16.615,52.09 L18.465,52.782 L20.925,53.474 L27,54.167 L98,54.167 L104.075,53.474 L106.535,52.782 L108.385,52.09 L109.911,51.397 L111.227,50.705 L112.389,50.013 L113.434,49.321 L114.383,48.628 L115.252,47.936 L116.053,47.244 L116.795,46.551 L117.483,45.859 L118.125,45.167 L118.723,44.474 L119.282,43.782 L119.805,43.09 L120.294,42.397 L120.752,41.705 L121.179,41.013 L121.579,40.321 L121.952,39.628 L122.3,38.936 L122.623,38.244 L122.923,37.551 L123.2,36.859 L123.456,36.167 L123.69,35.474 L123.904,34.782 L124.097,34.09 L124.271,33.397 L124.426,32.705 L124.562,32.013 L124.679,31.321 L124.777,30.628 L124.858,29.936 L124.92,29.244 L124.964,28.551 L124.991,27.859 L125,27.167 L125,27 L124.991,26.308 L124.964,25.615 L124.92,24.923 L124.858,24.231 L124.777,23.538 L124.679,22.846 L124.562,22.154 L124.426,21.462 L124.271,20.769 L124.097,20.077 L123.904,19.385 L123.69,18.692 L123.456,18 L123.2,17.308 L122.923,16.615 L122.623,15.923 L122.3,15.231 L121.952,14.538 L121.579,13.846 L121.179,13.154 L120.752,12.462 L120.294,11.769 L119.805,11.077 L119.282,10.385 L118.723,9.692 L118.125,9 L117.483,8.308 L116.795,7.615 L116.053,6.923 L115.252,6.231 L114.383,5.538 L113.434,4.846 L112.389,4.154 L111.227,3.462 L109.911,2.769 L108.385,2.077 L106.535,1.385 L104.075,0.692 L98,0 L27,0 z" stroke-width="1" stroke-dasharray="none"/></g><g width="83.66666666666666" height="33.5" transform="scale(1,1) translate(20.667,10.333)"><text width="83.66666666666666" height="18.75" transform="scale(1,1) translate(0,7.375)" xml:space="preserve"><tspan xml:space="preserve" text-rendering="optimizeSpeed" font-size="16.666666666666668" font-weight="normal" font-style="normal" text-decoration="none" fill="#333333" opacity="1" x="24.235" text-anchor="start" y="15.104" textLength="35.19694137573242" style="font-family: Arial, Helvetica Neue, Helvetica, sans-serif;">Start</tspan></text></g></g><g width="212.667" height="75" transform="scale(1,1) translate(397.833,142.667)"><g stroke="#B3D7EE" stroke-opacity="1" stroke-width="1" stroke-dasharray="none" width="212.667" height="75" transform="scale(1,1) translate(0,0)" fill="#B3D7EE" fill-opacity="1"><rect width="212.667" height="75"/></g><g width="207.66666666666666" height="70" transform="scale(1,1) translate(2.5,2.5)"><text width="207.66666666666666" height="37.5" transform="scale(1,1) translate(0,16.25)" xml:space="preserve"><tspan xml:space="preserve" text-rendering="optimizeSpeed" font-size="16.666666666666668" font-weight="normal" font-style="normal" text-decoration="none" fill="#333333" opacity="1" x="15.125" text-anchor="start" y="15.104" textLength="172.7864532470703" style="font-family: Arial, Helvetica Neue, Helvetica, sans-serif;">StringBuilder buf = new</tspan><tspan xml:space="preserve" text-rendering="optimizeSpeed" font-size="16.666666666666668" font-weight="normal" font-style="normal" text-decoration="none" fill="#333333" opacity="1" x="48.259" text-anchor="start" y="33.854" textLength="111.14910888671875" style="font-family: Arial, Helvetica Neue, Helvetica, sans-serif;">StringBuilder();</tspan></text></g></g><g width="401.333" height="163.833" transform="scale(1,1) translate(303.5,293.667)"><g transform="scale(1,1) translate(0,0)" stroke="#B3D7EE" fill="#B3D7EE" fill-opacity="1" stroke-opacity="1"><path d="M200.667,0 L401.333,81.917 L200.667,163.833 L0,81.917 L200.667,0 z" stroke-width="1" stroke-dasharray="none"/></g><g width="200.16666666666666" height="81.41666666666666" transform="scale(1,1) translate(100.583,41.208)"><text width="200.16666666666666" height="75" transform="scale(1,1) translate(0,3.2083333333333286)" xml:space="preserve"><tspan xml:space="preserve" text-rendering="optimizeSpeed" font-size="16.666666666666668" font-weight="normal" font-style="normal" text-decoration="none" fill="#333333" opacity="1" x="25.055" text-anchor="start" y="15.104" textLength="145.42642211914062" style="font-family: Arial, Helvetica Neue, Helvetica, sans-serif;">String reportName :</tspan><tspan xml:space="preserve" text-rendering="optimizeSpeed" font-size="16.666666666666668" font-weight="normal" font-style="normal" text-decoration="none" fill="#333333" opacity="1" x="1.288" text-anchor="start" y="33.854" textLength="197.59117126464844" style="font-family: Arial, Helvetica Neue, Helvetica, sans-serif;">RendererFactory.REPORT</tspan><tspan xml:space="preserve" text-rendering="optimizeSpeed" font-size="16.666666666666668" font-weight="normal" font-style="normal" text-decoration="none" fill="#333333" opacity="1" x="5.007" text-anchor="start" y="52.604" textLength="190.15289306640625" style="font-family: Arial, Helvetica Neue, Helvetica, sans-serif;">_FORMAT_TO_RENDER</tspan><tspan xml:space="preserve" text-rendering="optimizeSpeed" font-size="16.666666666666668" font-weight="normal" font-style="normal" text-decoration="none" fill="#333333" opacity="1" x="55.166" text-anchor="start" y="71.354" textLength="89.8355712890625" style="font-family: Arial, Helvetica Neue, Helvetica, sans-serif;">ER.keySet()</tspan></text></g></g><g width="697.167" height="123.47" transform="scale(1,1) translate(155.583,533.515)"><g stroke="#B3D7EE" stroke-opacity="1" stroke-width="1" stroke-dasharray="none" width="697.167" height="123.47" transform="scale(1,1) translate(0,0)" fill="#B3D7EE" fill-opacity="1"><rect width="697.167" height="123.47"/></g><g width="692.1666666666666" height="118.47048279158702" transform="scale(1,1) translate(2.5,2.5)"><text width="692.1666666666666" height="37.5" transform="scale(1,1) translate(0,40.48524139579351)" xml:space="preserve"><tspan xml:space="preserve" text-rendering="optimizeSpeed" font-size="16.666666666666668" font-weight="normal" font-style="normal" text-decoration="none" fill="#333333" opacity="1" x="28.281" text-anchor="start" y="15.104" textLength="635.603759765625" style="font-family: Arial, Helvetica Neue, Helvetica, sans-serif;">Renderer renderer = RendererFactory.createRenderer(reportName, new Properties());</tspan><tspan xml:space="preserve" text-rendering="optimizeSpeed" font-size="16.666666666666668" font-weight="normal" font-style="normal" text-decoration="none" fill="#333333" opacity="1" x="129.974" text-anchor="start" y="33.854" textLength="432.21832275390625" style="font-family: Arial, Helvetica Neue, Helvetica, sans-serif;">            buf.append("   ").append(reportName).append(": ");</tspan></text></g></g><g width="371.333" height="113.667" transform="scale(1,1) translate(318.5,733)"><g transform="scale(1,1) translate(0,0)" stroke="#B3D7EE" fill="#B3D7EE" fill-opacity="1" stroke-opacity="1"><path d="M185.667,0 L371.333,56.833 L185.667,113.667 L0,56.833 L185.667,0 z" stroke-width="1" stroke-dasharray="none"/></g><g width="185.16666666666666" height="56.33333333333333" transform="scale(1,1) translate(93.083,28.667)"><text width="185.16666666666666" height="37.5" transform="scale(1,1) translate(0,9.416666666666664)" xml:space="preserve"><tspan xml:space="preserve" text-rendering="optimizeSpeed" font-size="16.666666666666668" font-weight="normal" font-style="normal" text-decoration="none" fill="#333333" opacity="1" x="4.579" text-anchor="start" y="15.104" textLength="176.00909423828125" style="font-family: Arial, Helvetica Neue, Helvetica, sans-serif;">!reportName.equals(ren</tspan><tspan xml:space="preserve" text-rendering="optimizeSpeed" font-size="16.666666666666668" font-weight="normal" font-style="normal" text-decoration="none" fill="#333333" opacity="1" x="29.135" text-anchor="start" y="33.854" textLength="126.89620971679688" style="font-family: Arial, Helvetica Neue, Helvetica, sans-serif;">derer.getName())</tspan></text></g></g><g width="411.167" height="98.793" transform="scale(1,1) translate(298.583,922.687)"><g stroke="#B3D7EE" stroke-opacity="1" stroke-width="1" stroke-dasharray="none" width="411.167" height="98.793" transform="scale(1,1) translate(0,0)" fill="#B3D7EE" fill-opacity="1"><rect width="411.167" height="98.793"/></g><g width="406.16666666666663" height="93.79328741220961" transform="scale(1,1) translate(2.5,2.5)"><text width="406.16666666666663" height="37.5" transform="scale(1,1) translate(0,28.146643706104804)" xml:space="preserve"><tspan xml:space="preserve" text-rendering="optimizeSpeed" font-size="16.666666666666668" font-weight="normal" font-style="normal" text-decoration="none" fill="#333333" opacity="1" x="69.111" text-anchor="start" y="15.104" textLength="263.3138427734375" style="font-family: Arial, Helvetica Neue, Helvetica, sans-serif;">buf.append(" Deprecated alias for'")</tspan><tspan xml:space="preserve" text-rendering="optimizeSpeed" font-size="16.666666666666668" font-weight="normal" font-style="normal" text-decoration="none" fill="#333333" opacity="1" x="19.197" text-anchor="start" y="33.854" textLength="367.7733459472656" style="font-family: Arial, Helvetica Neue, Helvetica, sans-serif;">.append(renderer.getName()).append(PMD.EOL);</tspan></text></g></g><g width="209.833" height="722" transform="scale(1,1) translate(298.5,250)"><g transform="scale(1,1) translate(0,0)" fill="#545454" stroke="#545454" stroke-opacity="1"><path d="M 0 722 L -223.5 722 L -223.5 0 L 199.833 0" fill="none" stroke-width="1" stroke-dasharray="none"/><g><g stroke-dasharray="none"><path d="M199.833,-5L209.833,0L199.833,5z" stroke="none" fill-opacity="1"/></g></g></g></g><g width="0" height="1240.528" transform="scale(1,1) translate(654.167,1095.167)"><g fill="#545454" stroke="#545454" stroke-opacity="1" transform="scale(1,1) translate(0,0)"><path fill="none" stroke-width="1" stroke-dasharray="none" d="M0,0 L0,0 M0,0 L0,0 M0,1240.528 L0,1240.528 M0,0 L0,0 M0,77.333 L0,142.333 M0,304.5 L0,369.5 M0,460.528 L0,525.528 M0,611.528 L0,676.528 M0,762.528 L0,827.528 M0,938.528 L0,1003.528 M0,1089.528 L0,1154.528"/><g><g stroke-dasharray="none"><path d="M5,142.333L0,152.333L-5,142.333z" stroke="none" fill-opacity="1"/></g><g stroke-dasharray="none"><path d="M5,369.5L0,379.5L-5,369.5z" stroke="none" fill-opacity="1"/></g><g stroke-dasharray="none"><path d="M5,525.528L0,535.528L-5,525.528z" stroke="none" fill-opacity="1"/></g><g stroke-dasharray="none"><path d="M5,676.528L0,686.528L-5,676.528z" stroke="none" fill-opacity="1"/></g><g stroke-dasharray="none"><path d="M5,827.528L0,837.528L-5,827.528z" stroke="none" fill-opacity="1"/></g><g stroke-dasharray="none"><path d="M5,1003.528L0,1013.528L-5,1003.528z" stroke="none" fill-opacity="1"/></g><g stroke-dasharray="none"><path d="M5,1154.528L0,1164.528L-5,1154.528z" stroke="none" fill-opacity="1"/></g></g></g><g stroke-width="0" stroke-dasharray="none" fill="#FFFFFF" opacity="1" width="35.651" height="39.5" transform="scale(1,1) translate(-17.825,322.25)"><rect width="35.651" height="39.5"/></g><g width="33.65071105957031" height="75" transform="scale(1,1) translate(-16.825,323.25)"><text width="33.65071105957031" height="37.5" transform="scale(1,1) translate(0,0)" xml:space="preserve"><tspan xml:space="preserve" text-rendering="optimizeSpeed" font-size="16.666666666666668" font-weight="normal" font-style="normal" text-decoration="none" fill="#333333" opacity="1" x="0" text-anchor="start" y="15.104" textLength="33.65071105957031" style="font-family: Arial, Helvetica Neue, Helvetica, sans-serif;">True</tspan></text></g><g stroke-width="0" stroke-dasharray="none" fill="#FFFFFF" opacity="1" width="29.189" height="20.75" transform="scale(1,1) translate(-14.595,965.653)"><rect width="29.189" height="20.75"/></g><g width="27.189125061035156" height="75" transform="scale(1,1) translate(-13.595,966.653)"><text width="27.189125061035156" height="18.75" transform="scale(1,1) translate(0,0)" xml:space="preserve"><tspan xml:space="preserve" text-rendering="optimizeSpeed" font-size="16.666666666666668" font-weight="normal" font-style="normal" text-decoration="none" fill="#333333" opacity="1" x="0" text-anchor="start" y="15.104" textLength="27.189125061035156" style="font-family: Arial, Helvetica Neue, Helvetica, sans-serif;">Yes</tspan></text></g></g><g width="441.667" height="76.333" transform="scale(1,1) translate(433.333,1095.167)"><g stroke="#B3D7EE" stroke-opacity="1" stroke-width="1" stroke-dasharray="none" width="441.667" height="76.333" transform="scale(1,1) translate(0,0)" fill="#B3D7EE" fill-opacity="1"><rect width="441.667" height="76.333"/></g><g width="436.66666666666663" height="71.33333333333333" transform="scale(1,1) translate(2.5,2.5)"><text width="436.66666666666663" height="18.75" transform="scale(1,1) translate(0,26.291666666666664)" xml:space="preserve"><tspan xml:space="preserve" text-rendering="optimizeSpeed" font-size="16.666666666666668" font-weight="normal" font-style="normal" text-decoration="none" fill="#333333" opacity="1" x="3.408" text-anchor="start" y="15.104" textLength="429.8502502441406" style="font-family: Arial, Helvetica Neue, Helvetica, sans-serif;">buf.append(renderer.getDescription()).append(PMD.EOL);</tspan></text></g></g><g width="74.667" height="305.333" transform="scale(1,1) translate(689.833,789.833)"><g transform="scale(1,1) translate(0,0)" fill="#545454" stroke="#545454" stroke-opacity="1"><path d="M 0 0 L 74.667 0 L 74.667 295.333" fill="none" stroke-width="1" stroke-dasharray="none"/><g><g stroke-dasharray="none"><path d="M79.667,295.333L74.667,305.333L69.667,295.333z" stroke="none" fill-opacity="1"/></g></g></g><g stroke-width="0" stroke-dasharray="none" fill="#FFFFFF" opacity="1" width="23.305" height="20.75" transform="rotate(90,74.667,152.667) scale(1,1) translate(63.014,142.292)"><rect width="23.305" height="20.75"/></g><g width="21.305335998535156" height="305.33333333333326" transform="rotate(90,74.667,152.667) scale(1,1) translate(64.014,143.292)"><text width="21.305335998535156" height="18.75" transform="scale(1,1) translate(0,0)" xml:space="preserve"><tspan xml:space="preserve" text-rendering="optimizeSpeed" font-size="16.666666666666668" font-weight="normal" font-style="normal" text-decoration="none" fill="#333333" opacity="1" x="0" text-anchor="start" y="15.104" textLength="21.305335998535156" style="font-family: Arial, Helvetica Neue, Helvetica, sans-serif;">No</tspan></text></g></g><g width="355.333" height="151.167" transform="scale(1,1) translate(476.5,1247.5)"><g transform="scale(1,1) translate(0,0)" stroke="#B3D7EE" fill="#B3D7EE" fill-opacity="1" stroke-opacity="1"><path d="M177.667,0 L355.333,75.583 L177.667,151.167 L0,75.583 L177.667,0 z" stroke-width="1" stroke-dasharray="none"/></g><g width="177.33333333333331" height="75.16666666666666" transform="scale(1,1) translate(89,38)"><text width="177.33333333333331" height="75" transform="scale(1,1) translate(0,0.0833333333333286)" xml:space="preserve"><tspan xml:space="preserve" text-rendering="optimizeSpeed" font-size="16.666666666666668" font-weight="normal" font-style="normal" text-decoration="none" fill="#333333" opacity="1" x="2.518" text-anchor="start" y="15.104" textLength="167.6676483154297" style="font-family: Arial, Helvetica Neue, Helvetica, sans-serif;">PropertyDescriptor&lt;?&gt;</tspan><tspan xml:space="preserve" text-rendering="optimizeSpeed" font-size="16.666666666666668" font-weight="normal" font-style="normal" text-decoration="none" fill="#333333" opacity="1" x="51.15" text-anchor="start" y="33.854" textLength="70.40203857421875" style="font-family: Arial, Helvetica Neue, Helvetica, sans-serif;">property :</tspan><tspan xml:space="preserve" text-rendering="optimizeSpeed" font-size="16.666666666666668" font-weight="normal" font-style="normal" text-decoration="none" fill="#333333" opacity="1" x="1.582" text-anchor="start" y="52.604" textLength="174.16981506347656" style="font-family: Arial, Helvetica Neue, Helvetica, sans-serif;">renderer.getPropertyDe</tspan><tspan xml:space="preserve" text-rendering="optimizeSpeed" font-size="16.666666666666668" font-weight="normal" font-style="normal" text-decoration="none" fill="#333333" opacity="1" x="51.631" text-anchor="start" y="71.354" textLength="74.07229614257812" style="font-family: Arial, Helvetica Neue, Helvetica, sans-serif;">scriptors()</tspan></text></g></g><g width="475.833" height="80.028" transform="scale(1,1) translate(416.25,1474.653)"><g stroke="#B3D7EE" stroke-opacity="1" stroke-width="1" stroke-dasharray="none" width="475.833" height="80.028" transform="scale(1,1) translate(0,0)" fill="#B3D7EE" fill-opacity="1"><rect width="475.833" height="80.028"/></g><g width="470.8333333333333" height="75.02803083391731" transform="scale(1,1) translate(2.5,2.5)"><text width="470.8333333333333" height="18.75" transform="scale(1,1) translate(0,28.139015416958657)" xml:space="preserve"><tspan xml:space="preserve" text-rendering="optimizeSpeed" font-size="16.666666666666668" font-weight="normal" font-style="normal" text-decoration="none" fill="#333333" opacity="1" x="18.075" text-anchor="start" y="15.104" textLength="434.6841735839844" style="font-family: Arial, Helvetica Neue, Helvetica, sans-serif;">buf.append("        ").append(property.name()).append(" - ");</tspan></text></g></g><g width="329.333" height="75" transform="scale(1,1) translate(489.5,1630.667)"><g stroke="#B3D7EE" stroke-opacity="1" stroke-width="1" stroke-dasharray="none" width="329.333" height="75" transform="scale(1,1) translate(0,0)" fill="#B3D7EE" fill-opacity="1"><rect width="329.333" height="75"/></g><g width="324.3333333333333" height="70" transform="scale(1,1) translate(2.5,2.5)"><text width="324.3333333333333" height="18.75" transform="scale(1,1) translate(0,25.625)" xml:space="preserve"><tspan xml:space="preserve" text-rendering="optimizeSpeed" font-size="16.666666666666668" font-weight="normal" font-style="normal" text-decoration="none" fill="#333333" opacity="1" x="34.477" text-anchor="start" y="15.104" textLength="255.37924194335938" style="font-family: Arial, Helvetica Neue, Helvetica, sans-serif;">buf.append(property.description());</tspan></text></g></g><g width="304.333" height="75" transform="scale(1,1) translate(502,1781.667)"><g stroke="#B3D7EE" stroke-opacity="1" stroke-width="1" stroke-dasharray="none" width="304.333" height="75" transform="scale(1,1) translate(0,0)" fill="#B3D7EE" fill-opacity="1"><rect width="304.333" height="75"/></g><g width="299.3333333333333" height="70" transform="scale(1,1) translate(2.5,2.5)"><text width="299.3333333333333" height="18.75" transform="scale(1,1) translate(0,25.625)" xml:space="preserve"><tspan xml:space="preserve" text-rendering="optimizeSpeed" font-size="16.666666666666668" font-weight="normal" font-style="normal" text-decoration="none" fill="#333333" opacity="1" x="12.171" text-anchor="start" y="15.104" textLength="274.9919128417969" style="font-family: Arial, Helvetica Neue, Helvetica, sans-serif;">Object deflt = property.defaultValue();</tspan></text></g></g><g width="200" height="100" transform="scale(1,1) translate(554.167,1932.667)"><g transform="scale(1,1) translate(0,0)" stroke="#B3D7EE" fill="#B3D7EE" fill-opacity="1" stroke-opacity="1"><path d="M100,0 L200,50 L100,100 L0,50 L100,0 z" stroke-width="1" stroke-dasharray="none"/></g><g width="99.5" height="49.5" transform="scale(1,1) translate(50.167,25.167)"><text width="99.5" height="18.75" transform="scale(1,1) translate(0,15.375)" xml:space="preserve"><tspan xml:space="preserve" text-rendering="optimizeSpeed" font-size="16.666666666666668" font-weight="normal" font-style="normal" text-decoration="none" fill="#333333" opacity="1" x="9.215" text-anchor="start" y="15.104" textLength="81.07095336914062" style="font-family: Arial, Helvetica Neue, Helvetica, sans-serif;">deflt != null</tspan></text></g></g><g width="296" height="75" transform="scale(1,1) translate(506.167,2108.667)"><g stroke="#B3D7EE" stroke-opacity="1" stroke-width="1" stroke-dasharray="none" width="296" height="75" transform="scale(1,1) translate(0,0)" fill="#B3D7EE" fill-opacity="1"><rect width="296" height="75"/></g><g width="291" height="70" transform="scale(1,1) translate(2.5,2.5)"><text width="291" height="18.75" transform="scale(1,1) translate(0,25.625)" xml:space="preserve"><tspan xml:space="preserve" text-rendering="optimizeSpeed" font-size="16.666666666666668" font-weight="normal" font-style="normal" text-decoration="none" fill="#333333" opacity="1" x="1.99" text-anchor="start" y="15.104" textLength="287.0198669433594" style="font-family: Arial, Helvetica Neue, Helvetica, sans-serif;">buf.append("   default: ").append(deflt);</tspan></text></g></g><g width="187.667" height="75" transform="scale(1,1) translate(560.333,2259.667)"><g stroke="#B3D7EE" stroke-opacity="1" stroke-width="1" stroke-dasharray="none" width="187.667" height="75" transform="scale(1,1) translate(0,0)" fill="#B3D7EE" fill-opacity="1"><rect width="187.667" height="75"/></g><g width="182.66666666666666" height="70" transform="scale(1,1) translate(2.5,2.5)"><text width="182.66666666666666" height="18.75" transform="scale(1,1) translate(0,25.625)" xml:space="preserve"><tspan xml:space="preserve" text-rendering="optimizeSpeed" font-size="16.666666666666668" font-weight="normal" font-style="normal" text-decoration="none" fill="#333333" opacity="1" x="4.252" text-anchor="start" y="15.104" textLength="174.16177368164062" style="font-family: Arial, Helvetica Neue, Helvetica, sans-serif;">buf.append(PMD.EOL);</tspan></text></g></g><g width="95.833" height="234" transform="scale(1,1) translate(658.333,1982.667)"><g transform="scale(1,1) translate(0,0)" fill="#545454" stroke="#545454" stroke-opacity="1"><path d="M 10 234 L 200 234 L 200 0 L 95.833 0" fill="none" stroke-width="1" stroke-dasharray="none"/><g><g stroke-dasharray="none"><path d="M10,239L0,234L10,229z" stroke="none" fill-opacity="1"/></g></g></g><g stroke-width="0" stroke-dasharray="none" fill="#FFFFFF" opacity="1" width="23.305" height="20.75" transform="scale(1,1) translate(188.347,106.625)"><rect width="23.305" height="20.75"/></g><g width="21.305335998535156" height="234" transform="scale(1,1) translate(189.347,107.625)"><text width="21.305335998535156" height="18.75" transform="scale(1,1) translate(0,0)" xml:space="preserve"><tspan xml:space="preserve" text-rendering="optimizeSpeed" font-size="16.666666666666668" font-weight="normal" font-style="normal" text-decoration="none" fill="#333333" opacity="1" x="0" text-anchor="start" y="15.104" textLength="21.305335998535156" style="font-family: Arial, Helvetica Neue, Helvetica, sans-serif;">No</tspan></text></g></g><g width="127" height="947.5" transform="scale(1,1) translate(704.833,375.5)"><g transform="scale(1,1) translate(0,0)" fill="#545454" stroke="#545454" stroke-opacity="1"><path d="M 10 0 L 228.5 0 L 228.5 947.5 L 127 947.5" fill="none" stroke-width="1" stroke-dasharray="none"/><g><g stroke-dasharray="none"><path d="M10,5L0,0L10,-5z" stroke="none" fill-opacity="1"/></g></g></g><g stroke-width="0" stroke-dasharray="none" fill="#FFFFFF" opacity="1" width="42.755" height="20.75" transform="rotate(90,228.5,473.75) scale(1,1) translate(207.122,463.375)"><rect width="42.755" height="20.75"/></g><g width="40.75520324707031" height="947.5" transform="rotate(90,228.5,473.75) scale(1,1) translate(208.122,464.375)"><text width="40.75520324707031" height="18.75" transform="scale(1,1) translate(0,0)" xml:space="preserve"><tspan xml:space="preserve" text-rendering="optimizeSpeed" font-size="16.666666666666668" font-weight="normal" font-style="normal" text-decoration="none" fill="#333333" opacity="1" x="0" text-anchor="start" y="15.104" textLength="40.75520324707031" style="font-family: Arial, Helvetica Neue, Helvetica, sans-serif;">False</tspan></text></g></g><g width="223.333" height="75" transform="scale(1,1) translate(28.333,2372.833)"><g transform="scale(1,1) translate(0,0)" stroke="#B3D7EE" fill="#B3D7EE" fill-opacity="1" stroke-opacity="1"><path d="M37,0 L28.675,0.949 L25.303,1.897 L22.769,2.846 L20.678,3.795 L18.875,4.744 L17.281,5.692 L15.85,6.641 L14.549,7.59 L13.358,8.538 L12.26,9.487 L11.244,10.436 L10.301,11.385 L9.422,12.333 L8.602,13.282 L7.836,14.231 L7.119,15.179 L6.449,16.128 L5.822,17.077 L5.236,18.026 L4.688,18.974 L4.177,19.923 L3.7,20.872 L3.257,21.821 L2.846,22.769 L2.466,23.718 L2.116,24.667 L1.795,25.615 L1.502,26.564 L1.237,27.513 L0.999,28.462 L0.787,29.41 L0.601,30.359 L0.44,31.308 L0.305,32.256 L0.195,33.205 L0.11,34.154 L0.049,35.103 L0.012,36.051 L0,37 L0,38 L0.012,38.949 L0.049,39.897 L0.11,40.846 L0.195,41.795 L0.305,42.744 L0.44,43.692 L0.601,44.641 L0.787,45.59 L0.999,46.538 L1.237,47.487 L1.502,48.436 L1.795,49.385 L2.116,50.333 L2.466,51.282 L2.846,52.231 L3.257,53.179 L3.7,54.128 L4.177,55.077 L4.688,56.026 L5.236,56.974 L5.822,57.923 L6.449,58.872 L7.119,59.821 L7.836,60.769 L8.602,61.718 L9.422,62.667 L10.301,63.615 L11.244,64.564 L12.26,65.513 L13.358,66.462 L14.549,67.41 L15.85,68.359 L17.281,69.308 L18.875,70.256 L20.678,71.205 L22.769,72.154 L25.303,73.103 L28.675,74.051 L37,75 L186.333,75 L194.658,74.051 L198.03,73.103 L200.564,72.154 L202.656,71.205 L204.459,70.256 L206.052,69.308 L207.484,68.359 L208.784,67.41 L209.975,66.462 L211.073,65.513 L212.089,64.564 L213.033,63.615 L213.912,62.667 L214.732,61.718 L215.498,60.769 L216.214,59.821 L216.884,58.872 L217.511,57.923 L218.098,56.974 L218.646,56.026 L219.157,55.077 L219.633,54.128 L220.076,53.179 L220.487,52.231 L220.867,51.282 L221.217,50.333 L221.538,49.385 L221.831,48.436 L222.096,47.487 L222.335,46.538 L222.547,45.59 L222.732,44.641 L222.893,43.692 L223.028,42.744 L223.138,41.795 L223.224,40.846 L223.285,39.897 L223.321,38.949 L223.333,38 L223.333,37 L223.321,36.051 L223.285,35.103 L223.224,34.154 L223.138,33.205 L223.028,32.256 L222.893,31.308 L222.732,30.359 L222.547,29.41 L222.335,28.462 L222.096,27.513 L221.831,26.564 L221.538,25.615 L221.217,24.667 L220.867,23.718 L220.487,22.769 L220.076,21.821 L219.633,20.872 L219.157,19.923 L218.646,18.974 L218.098,18.026 L217.511,17.077 L216.884,16.128 L216.214,15.179 L215.498,14.231 L214.732,13.282 L213.912,12.333 L213.033,11.385 L212.089,10.436 L211.073,9.487 L209.975,8.538 L208.784,7.59 L207.484,6.641 L206.052,5.692 L204.459,4.744 L202.656,3.795 L200.564,2.846 L198.03,1.897 L194.658,0.949 L186.333,0 L37,0 z" stroke-width="1" stroke-dasharray="none"/></g><g width="153.33333333333331" height="48.33333333333333" transform="scale(1,1) translate(35,13.333)"><text width="153.33333333333331" height="18.75" transform="scale(1,1) translate(0,14.791666666666664)" xml:space="preserve"><tspan xml:space="preserve" text-rendering="optimizeSpeed" font-size="16.666666666666668" font-weight="normal" font-style="normal" text-decoration="none" fill="#333333" opacity="1" x="2.098" text-anchor="start" y="15.104" textLength="149.13734436035156" style="font-family: Arial, Helvetica Neue, Helvetica, sans-serif;">return buf.toString();</tspan></text></g></g><g width="163.5" height="1997.333" transform="scale(1,1) translate(140,375.5)"><g transform="scale(1,1) translate(0,0)" fill="#545454" stroke="#545454" stroke-opacity="1"><path d="M 0 1987.333 L 0 0 L 163.5 0" fill="none" stroke-width="1" stroke-dasharray="none"/><g><g stroke-dasharray="none"><path d="M5,1987.333L0,1997.333L-5,1987.333z" stroke="none" fill-opacity="1"/></g></g></g><g stroke-width="0" stroke-dasharray="none" fill="#FFFFFF" opacity="1" width="42.755" height="20.75" transform="scale(1,1) translate(-21.378,988.292)"><rect width="42.755" height="20.75"/></g><g width="40.75520324707031" height="1997.3333333333335" transform="scale(1,1) translate(-20.378,989.292)"><text width="40.75520324707031" height="18.75" transform="scale(1,1) translate(0,0)" xml:space="preserve"><tspan xml:space="preserve" text-rendering="optimizeSpeed" font-size="16.666666666666668" font-weight="normal" font-style="normal" text-decoration="none" fill="#333333" opacity="1" x="0" text-anchor="start" y="15.104" textLength="40.75520324707031" style="font-family: Arial, Helvetica Neue, Helvetica, sans-serif;">False</tspan></text></g></g><g width="227" height="974.083" transform="scale(1,1) translate(476.5,1323.083)"><g transform="scale(1,1) translate(0,0)" fill="#545454" stroke="#545454" stroke-opacity="1"><path d="M 83.833 974.083 L -143.167 974.083 L -143.167 0 L -10 0" fill="none" stroke-width="1" stroke-dasharray="none"/><g><g stroke-dasharray="none"><path d="M-10,-5L0,0L-10,5z" stroke="none" fill-opacity="1"/></g></g></g></g></g></svg>