<?xml version="1.0" standalone="no"?><!DOCTYPE svg PUBLIC "-//W3C//DTD SVG 1.1//EN" "http://www.w3.org/Graphics/SVG/1.1/DTD/svg11.dtd"><svg xmlns="http://www.w3.org/2000/svg" version="1.1" width="1073.881" height="1931.921" xmlns:xlink="http://www.w3.org/1999/xlink" xlink="http://www.w3.org/1999/xlink" style="position:relative;overflow:hidden;" viewBox="165.23 -14.536 1073.881 1931.921"><defs/><g><g width="0" height="896.833" transform="scale(1,1) translate(732.785,-2.036)"><g fill="#545454" stroke="#545454" stroke-opacity="1" transform="scale(1,1) translate(0,0)"><path fill="none" stroke-width="1" stroke-dasharray="none" d="M0,0 L0,0 M0,0 L0,0 M0,896.833 L0,896.833 M0,0 L0,0 M0,76 L0,141 M0,227 L0,292 M0,396.833 L0,461.833 M0,546.833 L0,611.833 M0,746.833 L0,811.833"/><g><g stroke-dasharray="none"><path d="M5,141L0,151L-5,141z" stroke="none" fill-opacity="1"/></g><g stroke-dasharray="none"><path d="M5,292L0,302L-5,292z" stroke="none" fill-opacity="1"/></g><g stroke-dasharray="none"><path d="M5,461.833L0,471.833L-5,461.833z" stroke="none" fill-opacity="1"/></g><g stroke-dasharray="none"><path d="M5,611.833L0,621.833L-5,611.833z" stroke="none" fill-opacity="1"/></g><g stroke-dasharray="none"><path d="M5,811.833L0,821.833L-5,811.833z" stroke="none" fill-opacity="1"/></g></g></g><g stroke-width="0" stroke-dasharray="none" fill="#FFFFFF" opacity="1" width="35.651" height="20.75" transform="scale(1,1) translate(-17.825,773.958)"><rect width="35.651" height="20.75"/></g><g width="33.65071105957031" height="75" transform="scale(1,1) translate(-16.825,774.958)"><text width="33.65071105957031" height="18.75" transform="scale(1,1) translate(0,0)" xml:space="preserve"><tspan xml:space="preserve" text-rendering="optimizeSpeed" font-size="16.666666666666668" font-weight="normal" font-style="normal" text-decoration="none" fill="#333333" opacity="1" x="0" text-anchor="start" y="15.104" textLength="33.65071105957031" style="font-family: Arial, Helvetica Neue, Helvetica, sans-serif;">True</tspan></text></g></g><g width="150" height="75" transform="scale(1,1) translate(657.785,-2.036)"><g transform="scale(1,1) translate(0,0)" stroke="#B3D7EE" fill="#B3D7EE" fill-opacity="1" stroke-opacity="1"><path d="M37,0 L28.675,0.949 L25.303,1.897 L22.769,2.846 L20.678,3.795 L18.875,4.744 L17.281,5.692 L15.85,6.641 L14.549,7.59 L13.358,8.538 L12.26,9.487 L11.244,10.436 L10.301,11.385 L9.422,12.333 L8.602,13.282 L7.836,14.231 L7.119,15.179 L6.449,16.128 L5.822,17.077 L5.236,18.026 L4.688,18.974 L4.177,19.923 L3.7,20.872 L3.257,21.821 L2.846,22.769 L2.466,23.718 L2.116,24.667 L1.795,25.615 L1.502,26.564 L1.237,27.513 L0.999,28.462 L0.787,29.41 L0.601,30.359 L0.44,31.308 L0.305,32.256 L0.195,33.205 L0.11,34.154 L0.049,35.103 L0.012,36.051 L0,37 L0,38 L0.012,38.949 L0.049,39.897 L0.11,40.846 L0.195,41.795 L0.305,42.744 L0.44,43.692 L0.601,44.641 L0.787,45.59 L0.999,46.538 L1.237,47.487 L1.502,48.436 L1.795,49.385 L2.116,50.333 L2.466,51.282 L2.846,52.231 L3.257,53.179 L3.7,54.128 L4.177,55.077 L4.688,56.026 L5.236,56.974 L5.822,57.923 L6.449,58.872 L7.119,59.821 L7.836,60.769 L8.602,61.718 L9.422,62.667 L10.301,63.615 L11.244,64.564 L12.26,65.513 L13.358,66.462 L14.549,67.41 L15.85,68.359 L17.281,69.308 L18.875,70.256 L20.678,71.205 L22.769,72.154 L25.303,73.103 L28.675,74.051 L37,75 L113,75 L121.325,74.051 L124.697,73.103 L127.231,72.154 L129.322,71.205 L131.125,70.256 L132.719,69.308 L134.15,68.359 L135.451,67.41 L136.642,66.462 L137.74,65.513 L138.756,64.564 L139.699,63.615 L140.578,62.667 L141.398,61.718 L142.164,60.769 L142.881,59.821 L143.551,58.872 L144.178,57.923 L144.764,56.974 L145.312,56.026 L145.823,55.077 L146.3,54.128 L146.743,53.179 L147.154,52.231 L147.534,51.282 L147.884,50.333 L148.205,49.385 L148.498,48.436 L148.763,47.487 L149.001,46.538 L149.213,45.59 L149.399,44.641 L149.56,43.692 L149.695,42.744 L149.805,41.795 L149.89,40.846 L149.951,39.897 L149.988,38.949 L150,38 L150,37 L149.988,36.051 L149.951,35.103 L149.89,34.154 L149.805,33.205 L149.695,32.256 L149.56,31.308 L149.399,30.359 L149.213,29.41 L149.001,28.462 L148.763,27.513 L148.498,26.564 L148.205,25.615 L147.884,24.667 L147.534,23.718 L147.154,22.769 L146.743,21.821 L146.3,20.872 L145.823,19.923 L145.312,18.974 L144.764,18.026 L144.178,17.077 L143.551,16.128 L142.881,15.179 L142.164,14.231 L141.398,13.282 L140.578,12.333 L139.699,11.385 L138.756,10.436 L137.74,9.487 L136.642,8.538 L135.451,7.59 L134.15,6.641 L132.719,5.692 L131.125,4.744 L129.322,3.795 L127.231,2.846 L124.697,1.897 L121.325,0.949 L113,0 L37,0 z" stroke-width="1" stroke-dasharray="none"/></g><g width="101.358910518" height="48.325901868" transform="scale(1,1) translate(24.321,13.337)"><text width="101.358910518" height="18.75" transform="scale(1,1) translate(0,14.787950934000001)" xml:space="preserve"><tspan xml:space="preserve" text-rendering="optimizeSpeed" font-size="16.666666666666668" font-weight="normal" font-style="normal" text-decoration="none" fill="#333333" opacity="1" x="33.081" text-anchor="start" y="15.104" textLength="35.19694137573242" style="font-family: Arial, Helvetica Neue, Helvetica, sans-serif;">Start</tspan></text></g></g><g width="175" height="75" transform="scale(1,1) translate(645.285,148.964)"><g transform="scale(1,1) translate(0,0)" stroke="#B3D7EE" fill="#B3D7EE" fill-opacity="1" stroke-opacity="1"><path d="M20,0 L175,0 L155,75 L0,75 L20,0 z" stroke-width="1" stroke-dasharray="none"/></g><g width="128.9783893624553" height="52.55402750491159" transform="scale(1,1) translate(23.011,11.223)"><text width="128.9783893624553" height="18.75" transform="scale(1,1) translate(0,16.902013752455794)" xml:space="preserve"><tspan xml:space="preserve" text-rendering="optimizeSpeed" font-size="16.666666666666668" font-weight="normal" font-style="normal" text-decoration="none" fill="#333333" opacity="1" x="6.123" text-anchor="start" y="15.104" textLength="116.73175811767578" style="font-family: Arial, Helvetica Neue, Helvetica, sans-serif;">RuleSet ruleSet</tspan></text></g></g><g width="987.652" height="93.833" transform="scale(1,1) translate(238.959,299.964)"><g stroke="#B3D7EE" stroke-opacity="1" stroke-width="1" stroke-dasharray="none" width="987.652" height="93.833" transform="scale(1,1) translate(0,0)" fill="#B3D7EE" fill-opacity="1"><rect width="987.652" height="93.833"/></g><g width="982.6516876183438" height="88.83333146572136" transform="scale(1,1) translate(2.5,2.5)"><text width="982.6516876183438" height="75" transform="scale(1,1) translate(0,6.916665732860679)" xml:space="preserve"><tspan xml:space="preserve" text-rendering="optimizeSpeed" font-size="16.666666666666668" font-weight="normal" font-style="normal" text-decoration="none" fill="#333333" opacity="1" x="142.884" text-anchor="start" y="15.104" textLength="696.88330078125" style="font-family: Arial, Helvetica Neue, Helvetica, sans-serif;">Element ruleSetElement = document.createElementNS(RULESET_2_0_0_NS_URI, "ruleset");</tspan><tspan xml:space="preserve" text-rendering="optimizeSpeed" font-size="16.666666666666668" font-weight="normal" font-style="normal" text-decoration="none" fill="#333333" opacity="1" x="160.841" text-anchor="start" y="33.854" textLength="660.969970703125" style="font-family: Arial, Helvetica Neue, Helvetica, sans-serif;">ruleSetElement.setAttribute("xmlns:xsi", "http://www.w3.org/2001/XMLSchema-instance");</tspan><tspan xml:space="preserve" text-rendering="optimizeSpeed" font-size="16.666666666666668" font-weight="normal" font-style="normal" text-decoration="none" fill="#333333" opacity="1" x="0" text-anchor="start" y="52.604" textLength="978.296142578125" style="font-family: Arial, Helvetica Neue, Helvetica, sans-serif;">ruleSetElement.setAttributeNS("http://www.w3.org/2001/XMLSchema-instance", "xsi:schemaLocation", RULESET_2_0_0_NS_URI +</tspan><tspan xml:space="preserve" text-rendering="optimizeSpeed" font-size="16.666666666666668" font-weight="normal" font-style="normal" text-decoration="none" fill="#333333" opacity="1" x="311.24" text-anchor="start" y="71.354" textLength="360.17169189453125" style="font-family: Arial, Helvetica Neue, Helvetica, sans-serif;">" https://pmd.sourceforge.io/ruleset_2_0_0.xsd");</tspan></text></g></g><g width="615.818" height="74" transform="scale(1,1) translate(424.876,469.797)"><g stroke="#B3D7EE" stroke-opacity="1" stroke-width="1" stroke-dasharray="none" width="615.818" height="74" transform="scale(1,1) translate(0,0)" fill="#B3D7EE" fill-opacity="1"><rect width="615.818" height="74"/></g><g width="610.8183605571577" height="69.00000077486004" transform="scale(1,1) translate(2.5,2.5)"><text width="610.8183605571577" height="56.25" transform="scale(1,1) translate(0,6.3750003874300205)" xml:space="preserve"><tspan xml:space="preserve" text-rendering="optimizeSpeed" font-size="16.666666666666668" font-weight="normal" font-style="normal" text-decoration="none" fill="#333333" opacity="1" x="96.628" text-anchor="start" y="15.104" textLength="417.561767578125" style="font-family: Arial, Helvetica Neue, Helvetica, sans-serif;">ruleSetElement.setAttribute("name", ruleSet.getName());</tspan><tspan xml:space="preserve" text-rendering="optimizeSpeed" font-size="16.666666666666668" font-weight="normal" font-style="normal" text-decoration="none" fill="#333333" opacity="1" x="1.34" text-anchor="start" y="33.854" textLength="608.1378784179688" style="font-family: Arial, Helvetica Neue, Helvetica, sans-serif;">Element descriptionElement = createDescriptionElement(ruleSet.getDescription());</tspan><tspan xml:space="preserve" text-rendering="optimizeSpeed" font-size="16.666666666666668" font-weight="normal" font-style="normal" text-decoration="none" fill="#333333" opacity="1" x="120.587" text-anchor="start" y="52.604" textLength="369.64508056640625" style="font-family: Arial, Helvetica Neue, Helvetica, sans-serif;">ruleSetElement.appendChild(descriptionElement);</tspan></text></g></g><g width="339.089" height="124" transform="scale(1,1) translate(563.24,619.797)"><g transform="scale(1,1) translate(0,0)" stroke="#B3D7EE" fill="#B3D7EE" fill-opacity="1" stroke-opacity="1"><path d="M169.545,0 L339.089,62 L169.545,124 L0,62 L169.545,0 z" stroke-width="1" stroke-dasharray="none"/></g><g width="169.04459529370018" height="61.500000283122176" transform="scale(1,1) translate(85.022,31.25)"><text width="169.04459529370018" height="56.25" transform="scale(1,1) translate(0,2.625000141561088)" xml:space="preserve"><tspan xml:space="preserve" text-rendering="optimizeSpeed" font-size="16.666666666666668" font-weight="normal" font-style="normal" text-decoration="none" fill="#333333" opacity="1" x="0" text-anchor="start" y="15.104" textLength="168.61166381835938" style="font-family: Arial, Helvetica Neue, Helvetica, sans-serif;">String excludePattern :</tspan><tspan xml:space="preserve" text-rendering="optimizeSpeed" font-size="16.666666666666668" font-weight="normal" font-style="normal" text-decoration="none" fill="#333333" opacity="1" x="2.064" text-anchor="start" y="33.854" textLength="164.91700744628906" style="font-family: Arial, Helvetica Neue, Helvetica, sans-serif;">ruleSet.getExcludePat</tspan><tspan xml:space="preserve" text-rendering="optimizeSpeed" font-size="16.666666666666668" font-weight="normal" font-style="normal" text-decoration="none" fill="#333333" opacity="1" x="60.446" text-anchor="start" y="52.604" textLength="48.152679443359375" style="font-family: Arial, Helvetica Neue, Helvetica, sans-serif;">terns()</tspan></text></g></g><g width="405.402" height="74" transform="scale(1,1) translate(530.084,819.797)"><g stroke="#B3D7EE" stroke-opacity="1" stroke-width="1" stroke-dasharray="none" width="405.402" height="74" transform="scale(1,1) translate(0,0)" fill="#B3D7EE" fill-opacity="1"><rect width="405.402" height="74"/></g><g width="400.4016930883116" height="68.99999970942713" transform="scale(1,1) translate(2.5,2.5)"><text width="400.4016930883116" height="56.25" transform="scale(1,1) translate(0,6.374999854713565)" xml:space="preserve"><tspan xml:space="preserve" text-rendering="optimizeSpeed" font-size="16.666666666666668" font-weight="normal" font-style="normal" text-decoration="none" fill="#333333" opacity="1" x="71.657" text-anchor="start" y="15.104" textLength="252.45773315429688" style="font-family: Arial, Helvetica Neue, Helvetica, sans-serif;">Element excludePatternElement =</tspan><tspan xml:space="preserve" text-rendering="optimizeSpeed" font-size="16.666666666666668" font-weight="normal" font-style="normal" text-decoration="none" fill="#333333" opacity="1" x="26.499" text-anchor="start" y="33.854" textLength="347.40399169921875" style="font-family: Arial, Helvetica Neue, Helvetica, sans-serif;">createExcludePatternElement(excludePattern);</tspan><tspan xml:space="preserve" text-rendering="optimizeSpeed" font-size="16.666666666666668" font-weight="normal" font-style="normal" text-decoration="none" fill="#333333" opacity="1" x="0.087" text-anchor="start" y="52.604" textLength="400.227783203125" style="font-family: Arial, Helvetica Neue, Helvetica, sans-serif;">ruleSetElement.appendChild(excludePatternElement);</tspan></text></g></g><g width="0" height="284.927" transform="scale(1,1) translate(745.093,951.536)"><g fill="#545454" stroke="#545454" stroke-opacity="1" transform="scale(1,1) translate(0,0)"><path fill="none" stroke-width="1" stroke-dasharray="none" d="M0,0 L0,0 M0,0 L0,0 M0,284.927 L0,284.927 M0,0 L0,0 M0,134.927 L0,199.927"/><g><g stroke-dasharray="none"><path d="M5,199.927L0,209.927L-5,199.927z" stroke="none" fill-opacity="1"/></g></g></g><g stroke-width="0" stroke-dasharray="none" fill="#FFFFFF" opacity="1" width="35.651" height="20.75" transform="scale(1,1) translate(-17.825,162.052)"><rect width="35.651" height="20.75"/></g><g width="33.65071105957031" height="75" transform="scale(1,1) translate(-16.825,163.052)"><text width="33.65071105957031" height="18.75" transform="scale(1,1) translate(0,0)" xml:space="preserve"><tspan xml:space="preserve" text-rendering="optimizeSpeed" font-size="16.666666666666668" font-weight="normal" font-style="normal" text-decoration="none" fill="#333333" opacity="1" x="0" text-anchor="start" y="15.104" textLength="33.65071105957031" style="font-family: Arial, Helvetica Neue, Helvetica, sans-serif;">True</tspan></text></g></g><g width="334.521" height="133.927" transform="scale(1,1) translate(577.833,951.536)"><g transform="scale(1,1) translate(0,0)" stroke="#B3D7EE" fill="#B3D7EE" fill-opacity="1" stroke-opacity="1"><path d="M167.26,0 L334.521,66.964 L167.26,133.927 L0,66.964 L167.26,0 z" stroke-width="1" stroke-dasharray="none"/></g><g width="166.76041698455805" height="66.46354150772117" transform="scale(1,1) translate(83.88,33.732)"><text width="166.76041698455805" height="56.25" transform="scale(1,1) translate(0,5.106770753860587)" xml:space="preserve"><tspan xml:space="preserve" text-rendering="optimizeSpeed" font-size="16.666666666666668" font-weight="normal" font-style="normal" text-decoration="none" fill="#333333" opacity="1" x="0" text-anchor="start" y="15.104" textLength="163.9811248779297" style="font-family: Arial, Helvetica Neue, Helvetica, sans-serif;">String includePattern :</tspan><tspan xml:space="preserve" text-rendering="optimizeSpeed" font-size="16.666666666666668" font-weight="normal" font-style="normal" text-decoration="none" fill="#333333" opacity="1" x="1.382" text-anchor="start" y="33.854" textLength="163.99737548828125" style="font-family: Arial, Helvetica Neue, Helvetica, sans-serif;">ruleSet.getIncludePatt</tspan><tspan xml:space="preserve" text-rendering="optimizeSpeed" font-size="16.666666666666668" font-weight="normal" font-style="normal" text-decoration="none" fill="#333333" opacity="1" x="61.619" text-anchor="start" y="52.604" textLength="43.52215576171875" style="font-family: Arial, Helvetica Neue, Helvetica, sans-serif;">erns()</tspan></text></g></g><g width="409.76" height="74" transform="scale(1,1) translate(540.213,1161.464)"><g stroke="#B3D7EE" stroke-opacity="1" stroke-width="1" stroke-dasharray="none" width="409.76" height="74" transform="scale(1,1) translate(0,0)" fill="#B3D7EE" fill-opacity="1"><rect width="409.76" height="74"/></g><g width="404.7604184101024" height="68.99999922513985" transform="scale(1,1) translate(2.5,2.5)"><text width="404.7604184101024" height="56.25" transform="scale(1,1) translate(0,6.374999612569923)" xml:space="preserve"><tspan xml:space="preserve" text-rendering="optimizeSpeed" font-size="16.666666666666668" font-weight="normal" font-style="normal" text-decoration="none" fill="#333333" opacity="1" x="76.151" text-anchor="start" y="15.104" textLength="247.8271942138672" style="font-family: Arial, Helvetica Neue, Helvetica, sans-serif;">Element includePatternElement =</tspan><tspan xml:space="preserve" text-rendering="optimizeSpeed" font-size="16.666666666666668" font-weight="normal" font-style="normal" text-decoration="none" fill="#333333" opacity="1" x="33.769" text-anchor="start" y="33.854" textLength="337.2232360839844" style="font-family: Arial, Helvetica Neue, Helvetica, sans-serif;">createIncludePatternElement(includePattern);</tspan><tspan xml:space="preserve" text-rendering="optimizeSpeed" font-size="16.666666666666668" font-weight="normal" font-style="normal" text-decoration="none" fill="#333333" opacity="1" x="4.582" text-anchor="start" y="52.604" textLength="395.5972595214844" style="font-family: Arial, Helvetica Neue, Helvetica, sans-serif;">ruleSetElement.appendChild(includePatternElement);</tspan></text></g></g><g width="0" height="568" transform="scale(1,1) translate(741.667,1333)"><g fill="#545454" stroke="#545454" stroke-opacity="1" transform="scale(1,1) translate(0,0)"><path fill="none" stroke-width="1" stroke-dasharray="none" d="M0,0 L0,0 M0,0 L0,0 M0,568 L0,568 M0,0 L0,0 M0,135 L0,200 M0,268 L0,333 M0,444 L0,509"/><g><g stroke-dasharray="none"><path d="M5,200L0,210L-5,200z" stroke="none" fill-opacity="1"/></g><g stroke-dasharray="none"><path d="M5,333L0,343L-5,333z" stroke="none" fill-opacity="1"/></g><g stroke-dasharray="none"><path d="M5,509L0,519L-5,509z" stroke="none" fill-opacity="1"/></g></g></g><g stroke-width="0" stroke-dasharray="none" fill="#FFFFFF" opacity="1" width="35.651" height="20.75" transform="scale(1,1) translate(-17.825,162.125)"><rect width="35.651" height="20.75"/></g><g width="33.65071105957031" height="75" transform="scale(1,1) translate(-16.825,163.125)"><text width="33.65071105957031" height="18.75" transform="scale(1,1) translate(0,0)" xml:space="preserve"><tspan xml:space="preserve" text-rendering="optimizeSpeed" font-size="16.666666666666668" font-weight="normal" font-style="normal" text-decoration="none" fill="#333333" opacity="1" x="0" text-anchor="start" y="15.104" textLength="33.65071105957031" style="font-family: Arial, Helvetica Neue, Helvetica, sans-serif;">True</tspan></text></g><g stroke-width="0" stroke-dasharray="none" fill="#FFFFFF" opacity="1" width="29.189" height="20.75" transform="scale(1,1) translate(-14.595,471.125)"><rect width="29.189" height="20.75"/></g><g width="27.189125061035156" height="75" transform="scale(1,1) translate(-13.595,472.125)"><text width="27.189125061035156" height="18.75" transform="scale(1,1) translate(0,0)" xml:space="preserve"><tspan xml:space="preserve" text-rendering="optimizeSpeed" font-size="16.666666666666668" font-weight="normal" font-style="normal" text-decoration="none" fill="#333333" opacity="1" x="0" text-anchor="start" y="15.104" textLength="27.189125061035156" style="font-family: Arial, Helvetica Neue, Helvetica, sans-serif;">Yes</tspan></text></g></g><g width="334.5" height="134" transform="scale(1,1) translate(574.417,1333)"><g transform="scale(1,1) translate(0,0)" stroke="#B3D7EE" fill="#B3D7EE" fill-opacity="1" stroke-opacity="1"><path d="M167.25,0 L334.5,67 L167.25,134 L0,67 L167.25,0 z" stroke-width="1" stroke-dasharray="none"/></g><g width="166.75" height="66.5" transform="scale(1,1) translate(83.875,33.75)"><text width="166.75" height="37.5" transform="scale(1,1) translate(0,14.5)" xml:space="preserve"><tspan xml:space="preserve" text-rendering="optimizeSpeed" font-size="16.666666666666668" font-weight="normal" font-style="normal" text-decoration="none" fill="#333333" opacity="1" x="43.08" text-anchor="start" y="15.104" textLength="75.96028137207031" style="font-family: Arial, Helvetica Neue, Helvetica, sans-serif;">Rule rule :</tspan><tspan xml:space="preserve" text-rendering="optimizeSpeed" font-size="16.666666666666668" font-weight="normal" font-style="normal" text-decoration="none" fill="#333333" opacity="1" x="16.216" text-anchor="start" y="33.854" textLength="134.31806182861328" style="font-family: Arial, Helvetica Neue, Helvetica, sans-serif;">ruleSet.getRules()</tspan></text></g></g><g width="380" height="57" transform="scale(1,1) translate(551.667,1543)"><g stroke="#B3D7EE" stroke-opacity="1" stroke-width="1" stroke-dasharray="none" width="380" height="57" transform="scale(1,1) translate(0,0)" fill="#B3D7EE" fill-opacity="1"><rect width="380" height="57"/></g><g width="375.000002880891" height="51.99999952316284" transform="scale(1,1) translate(2.5,2.5)"><text width="375.000002880891" height="18.75" transform="scale(1,1) translate(0,16.62499976158142)" xml:space="preserve"><tspan xml:space="preserve" text-rendering="optimizeSpeed" font-size="16.666666666666668" font-weight="normal" font-style="normal" text-decoration="none" fill="#333333" opacity="1" x="8.02" text-anchor="start" y="15.104" textLength="358.9599304199219" style="font-family: Arial, Helvetica Neue, Helvetica, sans-serif;">Element ruleElement = createRuleElement(rule);</tspan></text></g></g><g width="225" height="100" transform="scale(1,1) translate(629.167,1676)"><g transform="scale(1,1) translate(0,0)" stroke="#B3D7EE" fill="#B3D7EE" fill-opacity="1" stroke-opacity="1"><path d="M112.5,0 L225,50 L112.5,100 L0,50 L112.5,0 z" stroke-width="1" stroke-dasharray="none"/></g><g width="112.00000023841852" height="49.5" transform="scale(1,1) translate(56.5,25.25)"><text width="112.00000023841852" height="37.5" transform="scale(1,1) translate(0,6)" xml:space="preserve"><tspan xml:space="preserve" text-rendering="optimizeSpeed" font-size="16.666666666666668" font-weight="normal" font-style="normal" text-decoration="none" fill="#333333" opacity="1" x="0" text-anchor="start" y="15.104" textLength="107.9264144897461" style="font-family: Arial, Helvetica Neue, Helvetica, sans-serif;">ruleElement !=</tspan><tspan xml:space="preserve" text-rendering="optimizeSpeed" font-size="16.666666666666668" font-weight="normal" font-style="normal" text-decoration="none" fill="#333333" opacity="1" x="43.028" text-anchor="start" y="33.854" textLength="25.944015502929688" style="font-family: Arial, Helvetica Neue, Helvetica, sans-serif;">null</tspan></text></g></g><g width="325" height="48" transform="scale(1,1) translate(579.167,1852)"><g stroke="#B3D7EE" stroke-opacity="1" stroke-width="1" stroke-dasharray="none" width="325" height="48" transform="scale(1,1) translate(0,0)" fill="#B3D7EE" fill-opacity="1"><rect width="325" height="48"/></g><g width="320.00000333786" height="42.999999999999545" transform="scale(1,1) translate(2.5,2.5)"><text width="320.00000333786" height="18.75" transform="scale(1,1) translate(0,12.124999999999773)" xml:space="preserve"><tspan xml:space="preserve" text-rendering="optimizeSpeed" font-size="16.666666666666668" font-weight="normal" font-style="normal" text-decoration="none" fill="#333333" opacity="1" x="1.581" text-anchor="start" y="15.104" textLength="316.8375244140625" style="font-family: Arial, Helvetica Neue, Helvetica, sans-serif;">ruleSetElement.appendChild(ruleElement);</tspan></text></g></g><g width="244.54" height="76.437" transform="scale(1,1) translate(177.73,1828.448)"><g transform="scale(1,1) translate(0,0)" stroke="#B3D7EE" fill="#B3D7EE" fill-opacity="1" stroke-opacity="1"><path d="M38,0 L29.45,0.974 L25.987,1.949 L23.385,2.923 L21.236,3.897 L19.385,4.872 L17.748,5.846 L16.278,6.821 L14.942,7.795 L13.719,8.769 L12.592,9.744 L11.548,10.718 L10.579,11.692 L9.676,12.667 L8.834,13.641 L8.047,14.615 L7.312,15.59 L6.623,16.564 L5.979,17.538 L5.377,18.513 L4.815,19.487 L4.289,20.462 L3.8,21.436 L3.345,22.41 L2.923,23.385 L2.533,24.359 L2.173,25.333 L1.844,26.308 L1.543,27.282 L1.27,28.256 L1.026,29.231 L0.808,30.205 L0.617,31.179 L0.452,32.154 L0.314,33.128 L0.2,34.103 L0.113,35.077 L0.05,36.051 L0.012,37.026 L0,38 L0,38.437 L0.012,39.411 L0.05,40.385 L0.113,41.36 L0.2,42.334 L0.314,43.308 L0.452,44.283 L0.617,45.257 L0.808,46.231 L1.026,47.206 L1.27,48.18 L1.543,49.154 L1.844,50.129 L2.173,51.103 L2.533,52.078 L2.923,53.052 L3.345,54.026 L3.8,55.001 L4.289,55.975 L4.815,56.949 L5.377,57.924 L5.979,58.898 L6.623,59.872 L7.312,60.847 L8.047,61.821 L8.834,62.795 L9.676,63.77 L10.579,64.744 L11.548,65.719 L12.592,66.693 L13.719,67.667 L14.942,68.642 L16.278,69.616 L17.748,70.59 L19.385,71.565 L21.236,72.539 L23.385,73.513 L25.987,74.488 L29.45,75.462 L38,76.437 L206.54,76.437 L215.09,75.462 L218.552,74.488 L221.155,73.513 L223.303,72.539 L225.155,71.565 L226.791,70.59 L228.262,69.616 L229.597,68.642 L230.821,67.667 L231.948,66.693 L232.991,65.719 L233.961,64.744 L234.863,63.77 L235.705,62.795 L236.492,61.821 L237.228,60.847 L237.916,59.872 L238.56,58.898 L239.163,57.924 L239.725,56.949 L240.25,55.975 L240.74,55.001 L241.195,54.026 L241.617,53.052 L242.007,52.078 L242.366,51.103 L242.696,50.129 L242.997,49.154 L243.269,48.18 L243.514,47.206 L243.732,46.231 L243.923,45.257 L244.087,44.283 L244.226,43.308 L244.339,42.334 L244.427,41.36 L244.49,40.385 L244.527,39.411 L244.54,38.437 L244.54,38 L244.527,37.026 L244.49,36.051 L244.427,35.077 L244.339,34.103 L244.226,33.128 L244.087,32.154 L243.923,31.179 L243.732,30.205 L243.514,29.231 L243.269,28.256 L242.997,27.282 L242.696,26.308 L242.366,25.333 L242.007,24.359 L241.617,23.385 L241.195,22.41 L240.74,21.436 L240.25,20.462 L239.725,19.487 L239.163,18.513 L238.56,17.538 L237.916,16.564 L237.228,15.59 L236.492,14.615 L235.705,13.641 L234.863,12.667 L233.961,11.692 L232.991,10.718 L231.948,9.744 L230.821,8.769 L229.597,7.795 L228.262,6.821 L226.791,5.846 L225.155,4.872 L223.303,3.897 L221.155,2.923 L218.552,1.949 L215.09,0.974 L206.54,0 L38,0 z" stroke-width="1" stroke-dasharray="none"/></g><g width="168.2085748495292" height="49.34167257394498" transform="scale(1,1) translate(38.166,13.547)"><text width="168.2085748495292" height="18.75" transform="scale(1,1) translate(0,15.295836286972492)" xml:space="preserve"><tspan xml:space="preserve" text-rendering="optimizeSpeed" font-size="16.666666666666668" font-weight="normal" font-style="normal" text-decoration="none" fill="#333333" opacity="1" x="0.73" text-anchor="start" y="15.104" textLength="166.748046875" style="font-family: Arial, Helvetica Neue, Helvetica, sans-serif;">return ruleSetElement;</tspan></text></g></g><g width="31.466" height="171.333" transform="scale(1,1) translate(904.02,685.464)"><g transform="scale(1,1) translate(0,0)" fill="#545454" stroke="#545454" stroke-opacity="1"><path d="M 31.466 171.333 L 56.466 171.333 L 56.466 0 L 10 0" fill="none" stroke-width="1" stroke-dasharray="none"/><g><g stroke-dasharray="none"><path d="M10,5L0,0L10,-5z" stroke="none" fill-opacity="1"/></g></g></g></g><g width="181.853" height="269.74" transform="scale(1,1) translate(563.24,681.797)"><g transform="scale(1,1) translate(0,0)" fill="#545454" stroke="#545454" stroke-opacity="1"><path d="M 0 0 L -113.24 0 L -113.24 243.203 L 181.853 243.203 L 181.853 259.74" fill="none" stroke-width="1" stroke-dasharray="none"/><g><g stroke-dasharray="none"><path d="M186.853,259.74L181.853,269.74L176.853,259.74z" stroke="none" fill-opacity="1"/></g></g></g><g stroke-width="0" stroke-dasharray="none" fill="#FFFFFF" opacity="1" width="42.755" height="20.75" transform="scale(1,1) translate(12.928,232.828)"><rect width="42.755" height="20.75"/></g><g width="40.75520324707031" height="269.73958393434646" transform="scale(1,1) translate(13.928,233.828)"><text width="40.75520324707031" height="18.75" transform="scale(1,1) translate(0,0)" xml:space="preserve"><tspan xml:space="preserve" text-rendering="optimizeSpeed" font-size="16.666666666666668" font-weight="normal" font-style="normal" text-decoration="none" fill="#333333" opacity="1" x="0" text-anchor="start" y="15.104" textLength="40.75520324707031" style="font-family: Arial, Helvetica Neue, Helvetica, sans-serif;">False</tspan></text></g></g><g width="41.64" height="181.797" transform="scale(1,1) translate(908.333,1016.667)"><g transform="scale(1,1) translate(0,0)" fill="#545454" stroke="#545454" stroke-opacity="1"><path d="M 41.64 181.797 L 66.64 181.797 L 66.64 0 L 10 0" fill="none" stroke-width="1" stroke-dasharray="none"/><g><g stroke-dasharray="none"><path d="M10,5L0,0L10,-5z" stroke="none" fill-opacity="1"/></g></g></g></g><g width="163.834" height="314.5" transform="scale(1,1) translate(577.833,1018.5)"><g transform="scale(1,1) translate(0,0)" fill="#545454" stroke="#545454" stroke-opacity="1"><path d="M 0 0 L -119.499 0 L -119.499 256.5 L 163.834 256.5 L 163.834 304.5" fill="none" stroke-width="1" stroke-dasharray="none"/><g><g stroke-dasharray="none"><path d="M168.834,304.5L163.834,314.5L158.834,304.5z" stroke="none" fill-opacity="1"/></g></g></g><g stroke-width="0" stroke-dasharray="none" fill="#FFFFFF" opacity="1" width="42.755" height="20.75" transform="scale(1,1) translate(0.79,246.125)"><rect width="42.755" height="20.75"/></g><g width="40.75520324707031" height="314.49999985843897" transform="scale(1,1) translate(1.79,247.125)"><text width="40.75520324707031" height="18.75" transform="scale(1,1) translate(0,0)" xml:space="preserve"><tspan xml:space="preserve" text-rendering="optimizeSpeed" font-size="16.666666666666668" font-weight="normal" font-style="normal" text-decoration="none" fill="#333333" opacity="1" x="0" text-anchor="start" y="15.104" textLength="40.75520324707031" style="font-family: Arial, Helvetica Neue, Helvetica, sans-serif;">False</tspan></text></g></g><g width="274.417" height="428.448" transform="scale(1,1) translate(300,1400)"><g transform="scale(1,1) translate(0,0)" fill="#545454" stroke="#545454" stroke-opacity="1"><path d="M 274.417 0 L 0 0 L 0 418.448" fill="none" stroke-width="1" stroke-dasharray="none"/><g><g stroke-dasharray="none"><path d="M5,418.448L0,428.448L-5,418.448z" stroke="none" fill-opacity="1"/></g></g></g><g stroke-width="0" stroke-dasharray="none" fill="#FFFFFF" opacity="1" width="42.755" height="20.75" transform="scale(1,1) translate(-21.378,203.849)"><rect width="42.755" height="20.75"/></g><g width="40.75520324707031" height="428.4484083131888" transform="scale(1,1) translate(-20.378,204.849)"><text width="40.75520324707031" height="18.75" transform="scale(1,1) translate(0,0)" xml:space="preserve"><tspan xml:space="preserve" text-rendering="optimizeSpeed" font-size="16.666666666666668" font-weight="normal" font-style="normal" text-decoration="none" fill="#333333" opacity="1" x="0" text-anchor="start" y="15.104" textLength="40.75520324707031" style="font-family: Arial, Helvetica Neue, Helvetica, sans-serif;">False</tspan></text></g></g><g width="4.75" height="476" transform="scale(1,1) translate(904.167,1400)"><g transform="scale(1,1) translate(0,0)" fill="#545454" stroke="#545454" stroke-opacity="1"><path d="M 0 476 L 120.833 476 L 120.833 0 L 14.75 0" fill="none" stroke-width="1" stroke-dasharray="none"/><g><g stroke-dasharray="none"><path d="M14.75,5L4.75,0L14.75,-5z" stroke="none" fill-opacity="1"/></g></g></g></g><g width="170.833" height="1" transform="scale(1,1) translate(854.167,1725)"><g transform="scale(1,1) translate(0,0)" fill="#545454" stroke="#545454" stroke-opacity="1"><path d="M 0 1 L 160.833 1" fill="none" stroke-width="1" stroke-dasharray="none"/><g><g stroke-dasharray="none"><path d="M160.833,-4L170.833,1L160.833,6z" stroke="none" fill-opacity="1"/></g></g></g><g stroke-width="0" stroke-dasharray="none" fill="#FFFFFF" opacity="1" width="23.305" height="20.75" transform="scale(1,1) translate(73.764,-9.375)"><rect width="23.305" height="20.75"/></g><g width="21.305335998535156" height="18.75" transform="scale(1,1) translate(74.764,-8.375)"><text width="21.305335998535156" height="18.75" transform="scale(1,1) translate(0,0)" xml:space="preserve"><tspan xml:space="preserve" text-rendering="optimizeSpeed" font-size="16.666666666666668" font-weight="normal" font-style="normal" text-decoration="none" fill="#333333" opacity="1" x="0" text-anchor="start" y="15.104" textLength="21.305335998535156" style="font-family: Arial, Helvetica Neue, Helvetica, sans-serif;">No</tspan></text></g></g></g></svg>